<?xml version="1.0" encoding="UTF-8"?>
<svg id="Layer_1" xmlns="http://www.w3.org/2000/svg" xmlns:xlink="http://www.w3.org/1999/xlink" version="1.1" viewBox="0 0 540 220">
  <!-- Generator: Adobe Illustrator 29.6.1, SVG Export Plug-In . SVG Version: 2.1.1 Build 9)  -->
  <defs>
    <style>
      .st0 {
        fill: none;
      }

      .st1 {
        clip-path: url(#clippath-1);
      }

      .st2 {
        clip-path: url(#clippath-3);
      }

      .st3 {
        clip-path: url(#clippath-4);
      }

      .st4 {
        clip-path: url(#clippath-2);
      }

      .st5 {
        clip-path: url(#clippath-5);
      }

      .st6 {
        fill: #231e21;
      }

      .st7 {
        clip-path: url(#clippath);
      }
    </style>
    <clipPath id="clippath">
      <rect class="st0" x="2.3" y="6.6" width="536" height="206.2"/>
    </clipPath>
    <clipPath id="clippath-1">
      <rect class="st0" x="2.3" y="6.6" width="536" height="206.2"/>
    </clipPath>
    <clipPath id="clippath-2">
      <rect class="st0" x="2.3" y="6.6" width="536" height="206.2"/>
    </clipPath>
    <clipPath id="clippath-3">
      <rect class="st0" x="2.3" y="6.6" width="536" height="206.2"/>
    </clipPath>
    <clipPath id="clippath-4">
      <rect class="st0" x="2.3" y="6.6" width="536" height="206.2"/>
    </clipPath>
    <clipPath id="clippath-5">
      <rect class="st0" x="2.3" y="6.6" width="536" height="206.2"/>
    </clipPath>
  </defs>
  <g class="st7">
    <path class="st6" d="M155.5,39.4V7.3h-10.4v34.7c0,6.8-4.8,10.9-10.9,10.9s-11-4.1-11-10.9l.2-34.7h-10.7v32.1c0,16,9.4,23,21.6,23s21.4-7.1,21.2-23"/>
  </g>
  <polygon class="st6" points="93.1 61.7 103.4 61.7 103.4 7.3 93.1 7.3 93.1 25.3 68.7 25.3 68.7 7.3 58.3 7.3 58.3 61.7 68.7 61.7 68.7 34.8 93.1 34.8 93.1 61.7"/>
  <polygon class="st6" points="200.2 61.7 215.9 19.8 215.7 61.7 225.8 61.7 225.9 7.3 210.3 7.3 196.4 43.1 183.4 7.3 166.5 7.3 166.5 61.7 176.9 61.7 176.9 19.5 192.7 61.7 200.2 61.7"/>
  <g class="st1">
    <path class="st6" d="M28.4,16.3c5.8,0,10.7,3.6,13,8.4l9.7-4.8c-4-7.1-12.5-13.3-22.7-13.3C13,6.6,1.8,19.3,2.3,34.7c.2,15.8,10.5,27.7,26,27.7s18.3-5.1,22.7-13.8l-9.4-4.6c-2.3,5.6-7.2,9.1-13.3,8.9-9.9-.2-15-8.9-15-18.1s5.1-18.4,15-18.4"/>
    <path class="st6" d="M386.6,53.6V7.3h-10.4v41.2l-21.1-41.2h-15.1v47.7c3-1.4,6.5-2.2,10.4-2.2v-31.1l21.1,40h9.3v-8.1h5.9Z"/>
    <path class="st6" d="M245.8,15.9h12c3.3,0,7.4,2.8,7.4,6.9s-4.1,7.2-7.4,7.2h-12v-14.2ZM243.4,61.8h2.4v-23.2h12c7.2,0,16.3-4.8,16.3-16s-9.1-15.5-16.3-15.3h-22.2v46.3c-.1,0,4.7,0,4.7,0l3.1,8.2Z"/>
    <path class="st6" d="M287.6,30.3c0-1.8.8-3.6,2.1-5.1l6.1-6.1c1.3-1.3,3.1-2,4.9-2h8.7c1.8,0,3.6.7,4.9,2l6.1,6.1c1.3,1.5,2.1,3.3,2.1,5.1v8.6c0,2-.8,3.8-2.1,5.1l-6.1,6.1c-1.3,1.3-3.1,2-4.9,2h-8.7c-1.8,0-3.6-.7-4.9-2l-6.1-6.1c-1.3-1.3-2.1-3.1-2.1-5.1v-8.6ZM285.7,53.6h2.1c5.1-.1,11.2,3,14.3,8.1h9.4v-8.2h10.4v2.9l7.3-7.4c2.1-2,3.3-4.8,3.3-7.7v-13.5c0-2.8-1.2-5.6-3.3-7.7l-9.4-9.5c-2.1-2-4.9-3.1-7.9-3.1h-13.3c-3,0-5.8,1.2-7.9,3.1l-9.4,9.5c-2.1,2.1-3.3,4.9-3.3,7.7v13.5c0,3,1.2,5.8,3.3,7.7l4.4,4.5Z"/>
    <path class="st6" d="M311.8,61.7h-.4v46h10.4v-51.2l-2.1,2.1c-2.1,2-4.9,3.1-7.9,3.1"/>
  </g>
  <path class="st6" d="M234.1,66.4l7.2,20.1h-14.3l7.1-20.1ZM219.1,107.9l4.3-12.3h21.6l4.6,12.3h11l-17.2-46.1h-7.9v-8.2s-6,0-6,0l-20.7,54.3h10.4Z"/>
  <g class="st4">
    <path class="st6" d="M287.7,76.3h-12v-14.2h12c3.3,0,7.4,2.8,7.4,6.9s-4.1,7.2-7.4,7.2M290.6,58.6l-4.9-5h-20.2l-.2,54.5h10.4v-23.2h12c7.2,0,16.3-4.8,16.3-16s-.8-5.1-2-7.2h-3.5c-3,0-5.8-1.2-7.9-3.1"/>
    <path class="st6" d="M340,61.7v-6.7c-5.9,2.8-9.7,7.9-9.7,14.2,0,11,8.7,14,15.5,15.3l8.7,1.8c6.8,1.3,8.1,3.6,8.1,5.8,0,4.3-4.4,7.6-10.9,7.6s-12.8-1-12.8-8.9v-1.3h-10.7l.2,1.6c1.2,10.9,9.5,17.5,23.5,17.5s21.1-7.1,21.1-17-4.6-13-14.3-15l-9.9-2c-6.6-1.3-8.2-3.1-8.2-5.9s4.3-7.1,10-7.1,11,3,11,7.1v1.3h10.5l-.3-1.5c-2.3-10-8.6-15.8-21.2-15.8s-.1,0-.2,0v8.9h-10.4Z"/>
    <path class="st6" d="M413.2,88.3c0,6.8-4.8,10.9-10.9,10.9s-11-4.1-11-10.9l.2-34.7h-4.8v8.1h-5.9v24c0,16,9.4,23,21.6,23s21.4-7.1,21.2-23v-32.1h-10.4v34.7Z"/>
  </g>
  <rect class="st6" x="479.2" y="53.6" width="10.5" height="10.5"/>
  <polygon class="st6" points="475.7 53.6 462.4 53.6 442.2 75.5 442.2 53.6 431.8 53.6 431.6 107.9 442.2 107.9 442.2 89.1 446.9 84.2 464.4 107.9 477.1 107.9 454 76.6 475.7 53.6"/>
  <g class="st2">
    <path class="st6" d="M524,76.6l-9.9-2c-6.6-1.3-8.2-3.1-8.2-5.9s4.3-7.1,10-7.1,11,3,11,7.1v1.3h10.5l-.3-1.5c-2.3-10-8.6-15.8-21.2-15.8s-20.2,6.9-20.2,16.5,8.7,14,15.5,15.3l8.7,1.8c6.8,1.3,8.1,3.6,8.1,5.8,0,4.3-4.4,7.6-10.9,7.6s-12.8-1-12.8-8.9v-1.3h-10.7l.2,1.6c1.2,10.9,9.5,17.5,23.5,17.5s21.1-7.1,21.1-17-4.6-13-14.3-15"/>
  </g>
  <polygon class="st6" points="191.6 178.9 191.7 164.2 203.5 164.2 202 158.4 212.3 158.4 213.8 164.2 215.6 164.2 215.6 155.6 191.7 155.5 191.7 142 219.9 142 219.9 133.4 181.3 133.4 181.2 187.8 209.6 187.8 207.3 178.9 191.6 178.9"/>
  <g class="st3">
    <path class="st6" d="M219.7,187.1c0,.2,0,.4.1.6h0v-8.9h-2.2l.8,3.1c.4,1.6.8,3.4,1.2,5.1"/>
  </g>
  <rect class="st6" x="116.2" y="133.6" width="10.4" height="54.2"/>
  <polygon class="st6" points="82.7 133.6 72.3 133.6 72.3 177.4 72.3 187.8 111.1 187.8 111.1 177.4 82.7 177.4 82.7 133.6"/>
  <polygon class="st6" points="139.9 133.6 139.9 144 139.9 155.4 139.9 165.7 139.9 187.8 150.3 187.8 150.3 165.7 171.1 165.7 171.1 155.4 150.3 155.4 150.3 144 173.8 144 173.8 133.6 139.9 133.6"/>
  <polygon class="st6" points="383.3 158.6 383.3 202.4 383.3 212.7 422.1 212.7 422.1 202.4 393.7 202.4 393.7 158.6 383.3 158.6"/>
  <g class="st5">
    <path class="st6" d="M315,189.4c0,2.1-.8,4.3-2.5,5.9l-5.3,5.3c-1.6,1.6-3.8,2.5-5.9,2.5h-7.6c-2.1,0-4.3-.8-5.9-2.5l-5.3-5.3c-1.6-1.6-2.5-3.8-2.5-5.9v-7.6c0-2.1.8-4.3,2.5-5.9l5.3-5.3c1.6-1.6,3.8-2.5,5.9-2.5h7.6c2.1,0,4.3.8,5.9,2.5l5.3,5.3c1.6,1.6,2.5,3.8,2.5,5.9v7.6ZM312.1,161.5c-2-2-4.8-3.1-7.7-3.1h-13.5c-2.8,0-5.8,1.2-7.7,3.1l-9.5,9.5c-2,2-3.1,4.9-3.1,7.7v13.5c0,3,1.2,5.8,3.1,7.7l9.5,9.5c2,2,4.9,3.1,7.7,3.1h13.5c3,0,5.8-1.2,7.7-3.1l9.5-9.5c2-2,3.1-4.8,3.1-7.7v-13.5c0-2.8-1.2-5.8-3.1-7.7l-9.5-9.5Z"/>
    <path class="st6" d="M342.9,166.8h12c3.3,0,7.4,2.8,7.4,6.9s-4.1,7.2-7.4,7.2h-12v-14.2ZM371.2,173.6c0-9.2-9.1-15.5-16.3-15.3h-22.2l-.2,54.5h10.4v-23.2h5.8l17.1,23.2h11.6l-17.6-23.9c5.9-1.7,11.4-6.5,11.4-15.3"/>
    <path class="st6" d="M458.6,189.4c0,2.1-.8,4.3-2.5,5.9l-5.3,5.3c-1.6,1.6-3.8,2.5-5.9,2.5h-7.6c-.1,0-.2,0-.3,0v-34.8c.1,0,.2,0,.3,0h7.6c2.1,0,4.3.8,5.9,2.5l5.3,5.3c1.6,1.6,2.5,3.8,2.5,5.9v7.6ZM455.7,161.5c-2-2-4.8-3.1-7.7-3.1h-21.2v54.3h21.2c3,0,5.8-1.2,7.7-3.1l9.5-9.5c2-2,3.1-4.8,3.1-7.7v-13.5c0-2.8-1.2-5.8-3.1-7.7l-9.5-9.5Z"/>
    <path class="st6" d="M251.5,182.1c-.4,1.6-.8,3.2-1.2,5-.2.9-.4,2.6-.7,4.4-.2,1.5-.4,3.1-.6,4.3l-.3,1.5-.2-1.5c-.2-1.2-.4-2.6-.6-4.1-.2-1.8-.4-3.6-.7-4.6-.4-1.8-.8-3.6-1.1-5.3l-5.5-23.6h-11.2l-5.8,23.6c-.4,1.6-.8,3.4-1.2,5.2-.2,1.1-.5,3.2-.7,5.2-.1,1.2-.3,2.5-.4,3.5l-.2,1.8-.2-1.8c-.1-1-.3-2.3-.4-3.6-.2-1.7-.4-3.4-.6-4.5h-10.2l6.5,25h9.8l9.1-40.8,8.8,40.8h9.7l14.3-54.3h-10l-6.3,23.8Z"/>
  </g>
  <polygon class="st6" points="207.3 178.9 217.6 178.9 213.8 164.2 203.5 164.2 207.3 178.9"/>
</svg>