<?xml version="1.0" encoding="UTF-8"?>
<svg id="Layer_1" xmlns="http://www.w3.org/2000/svg" xmlns:xlink="http://www.w3.org/1999/xlink" version="1.1" viewBox="0 0 5000 500">
  <!-- Generator: Adobe Illustrator 29.6.1, SVG Export Plug-In . SVG Version: 2.1.1 Build 9)  -->
  <defs>
    <style>
      .st0 {
        fill: none;
      }

      .st1 {
        fill: #231f20;
      }

      .st2 {
        clip-path: url(#clippath-1);
      }

      .st3 {
        clip-path: url(#clippath-3);
      }

      .st4 {
        clip-path: url(#clippath-4);
      }

      .st5 {
        clip-path: url(#clippath-2);
      }

      .st6 {
        clip-path: url(#clippath-5);
      }

      .st7 {
        clip-path: url(#clippath);
      }
    </style>
    <clipPath id="clippath">
      <rect class="st0" x="-1.3" y="11" width="5003.3" height="478"/>
    </clipPath>
    <clipPath id="clippath-1">
      <rect class="st0" x="-1.3" y="11" width="5003.3" height="478"/>
    </clipPath>
    <clipPath id="clippath-2">
      <rect class="st0" x="-1.3" y="11" width="5003.3" height="478"/>
    </clipPath>
    <clipPath id="clippath-3">
      <rect class="st0" x="-1.3" y="11" width="5003.3" height="478"/>
    </clipPath>
    <clipPath id="clippath-4">
      <rect class="st0" x="-1.3" y="11" width="5003.3" height="478"/>
    </clipPath>
    <clipPath id="clippath-5">
      <rect class="st0" x="-1.3" y="11" width="5003.3" height="478"/>
    </clipPath>
  </defs>
  <g class="st7">
    <path class="st1" d="M4676.7,149.7l-54.1-10.8c-36-7.2-45.1-17.1-45.1-32.4s23.4-38.8,55-38.8,60.4,16.2,60.4,38.8v7.2h57.7l-1.8-8.1c-12.6-55-46.9-86.5-116.3-86.5s-110.9,37.9-110.9,90.1,47.8,76.6,84.7,83.8l47.8,9.9c36.9,7.2,44.2,19.8,44.2,31.5,0,23.4-24.3,41.5-59.5,41.5s-70.3-5.4-70.3-48.7v-7.2h-58.6l.9,9c6.3,59.5,52.3,95.5,128.9,95.5s115.4-38.8,115.4-92.8-25.2-71.2-78.4-82"/>
    <path class="st1" d="M1752.5,187.6c0,10.8-4.5,20.7-11.7,27.9l-33.3,33.3c-7.2,7.2-17.1,10.8-27,10.8h-47.8c-9.9,0-19.8-3.6-27-10.8l-33.3-33.3c-7.2-7.2-11.7-17.1-11.7-27.9v-46.9c0-9.9,4.5-19.8,11.7-27.9l33.3-33.3c7.2-7.2,17.1-10.8,27-10.8h47.8c9.9,0,19.8,3.6,27,10.8l33.3,33.3c7.2,8.1,11.7,18,11.7,27.9v46.9ZM1736.3,32.6c-11.7-10.8-27-17.1-43.3-17.1h-73c-16.2,0-31.5,6.3-43.3,17.1l-51.4,52.3c-11.7,11.7-18,27-18,42.4v73.9c0,16.2,6.3,31.5,18,42.4l51.4,52.3c11.7,10.8,27,17.1,43.3,17.1h73c16.2,0,31.5-6.3,43.3-17.1l51.4-52.3c11.7-10.8,18-26.1,18-42.4v-73.9c0-15.3-6.3-30.6-18-42.4l-51.4-52.3Z"/>
    <path class="st1" d="M1397.5,139.9h-65.8V62.4h65.8c18,0,40.6,15.3,40.6,37.9s-22.5,39.7-40.6,39.7M1397.5,15.5h-121.7l-.9,298.3h56.8v-127.1h65.8c39.7,0,89.2-26.1,89.2-87.4s-49.6-84.7-89.2-83.8"/>
  </g>
  <polygon class="st1" points="4791.1 23.6 4790.2 321 5002 321 5002 272.3 4847 272.3 4847.9 192.1 4978.6 192.1 4978.6 145.2 4847.9 144.3 4847.9 70.4 5002 70.4 5002 23.6 4791.1 23.6"/>
  <polygon class="st1" points="2102.4 313.8 2102.5 313.8 2102.5 313.7 2102.4 313.8"/>
  <polygon class="st1" points="2102.4 186.2 2102.4 16.4 2045.7 16.4 2045.7 241.7 1930.3 16.4 1847.4 16.4 1847.4 313.8 1904.2 313.8 1904.2 94.8 2019.5 313.8 2048.6 313.8 2097.4 186.2 2102.4 186.2"/>
  <g class="st2">
    <path class="st1" d="M780.1,205.7c0,36.9-26.1,59.5-59.5,59.5s-60.4-22.5-60.4-59.5l.9-190.2h-58.6v175.7c0,87.4,51.4,126.2,118.1,126.2s117.2-38.8,116.3-126.2V15.5h-56.8v190.2Z"/>
    <path class="st1" d="M3825,113.7h-133.4V15.4h-56.8v170.3c9.7-2,19.9-3.2,30.7-3.2s18,.6,26.1,1.7v-18.4h133.4v146.9h56.8V15.4h-56.8v98.2Z"/>
  </g>
  <polygon class="st1" points="495.3 112.8 361.9 112.8 361.9 14.6 305.2 14.6 305.2 312 361.9 312 361.9 165.1 495.3 165.1 495.3 312 552.1 312 552.1 14.6 495.3 14.6 495.3 112.8"/>
  <g class="st5">
    <path class="st1" d="M141.1,64.2c31.5,0,58.6,19.8,71.2,46l53.2-26.1C243.9,45.2,197,11,141.1,11,57.3,11-4,80.4-1.3,165.1c.9,86.5,57.7,151.4,142.4,151.4s100-27.9,124.4-75.7l-51.4-25.2c-12.6,30.6-39.7,49.6-73,48.7-54.1-.9-82-48.7-82-99.1s27.9-100.9,82-100.9"/>
  </g>
  <polygon class="st1" points="1061.3 211.1 990.1 15.5 897.3 15.5 897.3 312.9 954.1 312.9 954.1 82.2 1040.6 312.9 1082 312.9 1167.7 84 1166.8 312.9 1221.7 312.9 1222.6 15.5 1137 15.5 1061.3 211.1"/>
  <g class="st3">
    <path class="st1" d="M3634.8,237.6v59.4c5.7,2,12.5,3.8,20.8,5.5l36,7.2v-74.9c-7.8-2.3-16.6-3.5-26.1-3.5s-22.1,2.3-30.7,6.3"/>
    <path class="st1" d="M3725.9,270v7.2h57.7l-1.8-8.1c-10.9-47.6-38.1-77.6-90.2-84.8v50.5c20.6,5.9,34.3,18.9,34.3,35.2"/>
  </g>
  <rect class="st1" x="3464.4" y="187.1" width="57.7" height="57.7"/>
  <g class="st4">
    <path class="st1" d="M4160.2,184.9c0,11.7-4.5,23.4-13.5,32.4l-28.8,28.8c-9,9-20.7,13.5-32.4,13.5h-41.5c-11.7,0-23.4-4.5-32.4-13.5l-28.8-28.8c-9-9-13.5-20.7-13.5-32.4v-41.5c0-11.7,4.5-23.4,13.5-32.4l28.8-28.8c9-9,20.7-13.5,32.4-13.5h41.5c11.7,0,23.4,4.5,32.4,13.5l28.8,28.8c9,9,13.5,20.7,13.5,32.4v41.5ZM4144,32.6c-10.8-10.8-26.1-17.1-42.4-17.1h-73.9c-15.3,0-31.5,6.3-42.4,17.1l-52.3,52.3c-10.8,10.8-17.1,27-17.1,42.4v73.9c0,16.2,6.3,31.5,17.1,42.4l52.3,52.3c10.8,10.8,27,17.1,42.4,17.1h73.9c16.2,0,31.5-6.3,42.4-17.1l52.3-52.3c10.8-10.8,17.1-26.1,17.1-42.4v-73.9c0-15.3-6.3-31.5-17.1-42.4l-52.3-52.3Z"/>
    <path class="st1" d="M3634.8,312.9v-15.9c-18.9-6.6-24.3-15.2-24.3-27s9.4-25.5,24.3-32.4v-51.8c-47.7,10.1-80.1,43.5-80.1,86.9s47.8,76.6,84.7,83.8l47.8,9.9c36.9,7.2,44.2,19.8,44.2,31.5,0,23.4-24.3,41.5-59.5,41.5s-70.3-5.4-70.3-48.7v-7.2h-58.6l.9,9c6.3,59.5,52.3,95.5,128.9,95.5s115.4-38.8,115.4-92.8-25.2-71.2-78.4-82l-18.1-3.6v3.2h-56.8Z"/>
  </g>
  <polygon class="st1" points="3372.6 187.1 3261.8 306.9 3261.8 187.1 3205 187.1 3204.1 484.5 3261.8 484.5 3261.8 381.8 3287.9 354.7 3383.5 484.5 3452.9 484.5 3326.7 313.3 3445.6 187.1 3372.6 187.1"/>
  <rect class="st1" x="2546.2" y="187.1" width="56.8" height="296.5"/>
  <g class="st6">
    <path class="st1" d="M2416.4,309.7h-65.8v-77.5h65.8c18,0,40.6,15.3,40.6,37.9s-22.5,39.7-40.6,39.7M2416.4,185.3h-121.7l-.9,298.3h56.8v-127.1h65.8c39.7,0,89.2-26.1,89.2-87.4s-49.6-84.7-89.2-83.8"/>
    <path class="st1" d="M3103.2,377.2c0,36.9-26.1,59.5-59.5,59.5s-60.4-22.5-60.4-59.5l.9-190.2h-58.6v175.7c0,87.4,51.4,126.2,118.1,126.2s117.2-38.8,116.3-126.2v-175.7h-56.8v190.2Z"/>
    <path class="st1" d="M4422.3,213.2c0,36.9-26.1,59.5-59.5,59.5s-60.4-22.5-60.4-59.5l.9-190.2h-58.6v175.7c0,87.4,51.4,126.2,118.1,126.2s117.2-38.8,116.3-126.2V23.1h-56.8v190.2Z"/>
    <path class="st1" d="M2804.9,313.3l-54.1-10.8c-36-7.2-45.1-17.1-45.1-32.4s23.4-38.8,55-38.8,60.4,16.2,60.4,38.8v7.2h57.7l-1.8-8.1c-12.6-55-46.9-86.5-116.3-86.5s-110.9,37.9-110.9,90.1,47.8,76.6,84.7,83.8l47.8,9.9c36.9,7.2,44.2,19.8,44.2,31.5,0,23.4-24.3,41.5-59.5,41.5s-70.3-5.4-70.3-48.7v-7.2h-58.6l.9,9c6.3,59.5,52.3,95.5,128.9,95.5s115.4-38.8,115.4-92.8-25.2-71.2-78.4-82"/>
  </g>
  <polygon class="st1" points="2102.4 186.2 2102.4 313.7 2122.6 256.5 2162.3 366.4 2083.9 366.4 2102.4 313.8 2048.6 313.8 1983.8 483.6 2040.6 483.6 2064 416 2182.1 416 2207.3 483.6 2267.7 483.6 2156.9 186.2 2102.4 186.2"/>
</svg>