<?xml version="1.0" encoding="UTF-8"?>
<svg id="Layer_1" xmlns="http://www.w3.org/2000/svg" xmlns:xlink="http://www.w3.org/1999/xlink" version="1.1" viewBox="0 0 325 50">
  <!-- Generator: Adobe Illustrator 29.6.1, SVG Export Plug-In . SVG Version: 2.1.1 Build 9)  -->
  <defs>
    <style>
      .st0 {
        fill: none;
      }

      .st1 {
        fill: #231f20;
      }

      .st2 {
        clip-path: url(#clippath-1);
      }

      .st3 {
        clip-path: url(#clippath);
      }
    </style>
    <clipPath id="clippath">
      <rect class="st0" y=".8" width="321.5" height="48.4"/>
    </clipPath>
    <clipPath id="clippath-1">
      <rect class="st0" y=".8" width="321.5" height="48.4"/>
    </clipPath>
  </defs>
  <g class="st3">
    <path class="st1" d="M213,.9h-12c-2.5,0-5.1,1-6.9,2.8l-8.5,8.5c-1.8,1.8-2.8,4.4-2.8,6.9v12c0,2.6,1,5.1,2.8,6.9l8.5,8.5c1.8,1.8,4.4,2.8,6.9,2.8h12c2.6,0,5.1-1,6.9-2.8l8.5-8.5c1.8-1.7,2.8-4.2,2.8-6.9v-12c0-2.5-1-5.1-2.8-6.9l-8.5-8.5c-1.8-1.8-4.2-2.8-6.9-2.8M203.6,40.5c-1.9,0-3.8-.7-5.3-2.2l-4.7-4.7c-1.5-1.5-2.2-3.4-2.2-5.2v-6.7c0-1.9.7-3.8,2.2-5.3l4.7-4.7c1.5-1.5,3.4-2.2,5.3-2.2h6.7c1.9,0,3.8.7,5.2,2.2l4.7,4.7c1.5,1.5,2.2,3.4,2.2,5.3v6.7c0,1.9-.7,3.8-2.2,5.2l-4.7,4.7c-1.5,1.5-3.4,2.2-5.2,2.2h-6.7Z"/>
    <path class="st1" d="M258,.8c0,0-.2,0-.2,0h-19.7v48.3c-.1,0,9,0,9,0v-20.6h5.1l15.1,20.6h10.3l-15.6-21.2c5.2-1.5,10.1-5.8,10.1-13.5s-7.8-13.6-14.2-13.6M247.1,20.9v-12.5h10.6c2.9,0,6.6,2.5,6.6,6.1s-3.6,6.4-6.6,6.4h-10.6Z"/>
    <path class="st1" d="M180.6.9h-8.9l-5.6,21c-.4,1.4-.7,2.9-1.1,4.4-.2.8-.4,2.3-.6,3.9-.2,1.3-.4,2.7-.5,3.8l-.2,1.3-.2-1.3c-.2-1-.3-2.3-.5-3.6-.2-1.6-.4-3.1-.6-4-.3-1.6-.7-3.1-1-4.7l-4.9-20.9h-9.9l-5.1,20.9c-.4,1.4-.7,3-1.1,4.6-.2,1-.4,2.8-.6,4.6-.1,1.1-.3,2.2-.4,3.1l-.2,1.6-.2-1.6c-.1-.9-.3-2.1-.4-3.2-.2-1.8-.4-3.6-.6-4.6-.3-1.6-.7-3.1-1.1-4.6l-5.4-20.9h-9.1l12.4,48.1h8.6l8-36.2,7.8,36.2h8.6L180.6.9Z"/>
  </g>
  <polygon class="st1" points="308.5 1.1 290.6 20.5 290.6 1.1 281.4 1.1 281.2 49.2 290.6 49.2 290.6 32.6 294.8 28.2 310.3 49.2 321.5 49.2 301.1 21.5 320.3 1.1 308.5 1.1"/>
  <path class="st1" d="M22.5,12.4l6.4,17.8h-12.7l6.3-17.8ZM18.4,1.1L0,49.2h9.2l3.8-10.9h19.1l4.1,10.9h9.8L28,1.1h-9.6Z"/>
  <g class="st2">
    <path class="st1" d="M67.4.9c0,0-.2,0-.2,0h-19.7v48.3c-.1,0,9,0,9,0v-20.6h5.1l15.1,20.6h10.3l-15.6-21.2c5.2-1.5,10.1-5.8,10.1-13.5S73.8.9,67.4.9M56.5,21v-12.5h10.6c2.9,0,6.6,2.5,6.6,6.1s-3.6,6.4-6.6,6.4h-10.6Z"/>
  </g>
  <polygon class="st1" points="82.8 1 82.8 9.1 97.1 9.1 97.1 49.2 106.3 49.2 106.3 9.1 120.5 9.1 120.5 1 82.8 1"/>
</svg>