<?xml version="1.0" encoding="UTF-8"?>
<svg id="Layer_1" xmlns="http://www.w3.org/2000/svg" version="1.1" viewBox="0 0 50 50">
  <!-- Generator: Adobe Illustrator 29.6.1, SVG Export Plug-In . SVG Version: 2.1.1 Build 9)  -->
  <defs>
    <style>
      .st0 {
        fill: #231f20;
      }
    </style>
  </defs>
  <path class="st0" d="M48.3,20.3c-6-7.2-14.5-11.4-23.3-11.4S7.9,12.9,1.8,20.1c-2.3,2.8-2.3,6.9,0,9.7,6.1,7.2,14.3,11.2,23.1,11.2s17.3-4.2,23.3-11.4c2.2-2.6,2.2-6.7,0-9.3ZM6.2,26.2c-.5-.6-.5-1.7,0-2.4,3.4-4.1,7.7-6.9,12.3-8.2-2.8,2-4.7,5.3-4.7,9.1s2.8,8.6,6.8,10.3c-5.5-1.1-10.5-4-14.4-8.7ZM43.9,26c-3.9,4.8-9,7.8-14.5,8.9,4-1.7,6.7-5.6,6.7-10.2s-1.8-7-4.7-9c4.7,1.4,8.9,4.2,12.4,8.4.4.5.4,1.5,0,2Z"/>
</svg>