<?xml version="1.0" encoding="UTF-8"?>
<svg id="Layer_1" xmlns="http://www.w3.org/2000/svg" version="1.1" viewBox="0 0 500 250">
  <!-- Generator: Adobe Illustrator 29.7.1, SVG Export Plug-In . SVG Version: 2.1.1 Build 8)  -->
  <defs>
    <style>
      .st0 {
        fill: #fff;
      }
    </style>
  </defs>
  <path class="st0" d="M122.2,193.4c-1.8-.9-5.5-.7-5.2,1.2.5,1.5,2.8,2.5,5.1,2.5,3.6-.2,2.5-2.8.1-3.7Z"/>
  <path class="st0" d="M101.6,93.8c.8.8,1.7,1.6,2.2,2.6.3,1,1.5.3,2.3.4.5,0,1.1,0,1.7,0-.5-3.5-1-7.1-2.1-10.4,0-.2-.1-.5-.2-.6,0,0-.1,0-.2.1-2.8,2-6.5,2.4-9.9,2.2h0c.1.9,0,1.9-.3,2.8,2.8-.4,4.8,1.3,6.7,3Z"/>
  <path class="st0" d="M100.4,73.1c0,.6.4,1.2.8,1.6.2.2.5.5.6.1,1.4-2.7,2-4.7,1.5-7.4,0,0,.1,0,.2-.1-.9.5-1.8,1-2.7,1.5.1,0,.3-.2.4-.2.4,1.5-.5,3.1-.9,4.5Z"/>
  <path class="st0" d="M118.4,121.4c.7-.4,1.4-.7,2-1.1-2.2-2.5-1-5.4,1.2-7.6,0,0-.2-.1-.3-.2-.4-.2-.7-.4-1-.7-1.1-.2-5.4.1-5.5-1.1h0s-.2,0-.2.1c.6,3.9,1,7.9,1.5,11.8.8-.4,1.2-.8,2.4-1.4Z"/>
  <path class="st0" d="M78.7,90.4s0,0,0,0c0,0,.1-.2.2-.3,0,0-.1.2-.2.3Z"/>
  <path class="st0" d="M136.6,59.9c-10.9-.5-21.4,1.8-30.6,6.2,0,0,0,0,0,0,.3.5.5,1.1.7,1.7,2.2,6.3,3.8,12.8,5.1,19.3.8,0,1.7,0,2.5-.3.8-.4,1.1-1.3,2-1.5,1.7-.5,3.1.5,4.6,1.3.4.2.7.5.9.5,0,0,0,0,0,0,0-.8-.8-2.3-.4-3.2.5-.8,1.5-.8,2.5-.5.8.2,2.6.7,2.1.2-.7-.6-1.4-1.2-2.1-1.8-2.7-2.6-5.4-4.7-8.7-6.7-.3-.2-.4-.4-.3-.8,0-.2.3-.4.3-.5,0-.1-.1-.4,0-.5,0-.3.2-.8.6-1.1.2-.2.6-.3.7-.6,1.5-4.2,7-4.5,10.6-3.2,4.1,1.4,5.9,4.5,8.5,8.3.9,1.5,1.5,3.1,1.4,4.7,0,.9-.3,1.7-1,2.3,0,0-.2.2-.2.3,0,.6-.2,1.2-.3,1.7.3.8,1.2.6,1.9.4.9-.6,2.9-3.6,3.3-5.4.7-2,.8-4.2.5-6.2,1.7-.4,6.7-1.2,10.4,3,2.1,1.9,3.6,2.8,2.9,5.8-.2,1.6-1,3.3-2.2,4.4-.7.6-1.8,1.1-2.6,1.5-1.2.9-2.8.9-4.2,1.4-1.4.6-3.2,1.1-4.6,1.5,1.7.2,3.6.7,5.5,0,2-.6,4.3-1.7,6.2-2.3.8-.2,1.5-.3,2.2-.2,9.3,1.3,2.5,7.2-3.6,9.3-1.6.5-3.2.9-4.8.6-4-.8-6.8-1.4-9.4-2.7-.1,0-.4-.2-.4,0-.1,3.9-2.4,6.8-6.7,6.7-1.9,0-2.2-1.3-2.1-2.6.1-1.9.5-3.6,0-5.5,0-.1,0-.1-.2-.1-.7.1-1.5.1-2.3,0-2.3,0-4.7,0-7-.1-1.8.8-3.8.6-5.5.1-.3,0-.1.3-.1.5.2,1.2.2,2.5.5,3.6,1.7.3,4.2.2,5.2,1.7.4.7,0,1.5-.6,1.9-.1.1-.3.2-.2.2,1.8-.1,6,1,5.2,3.3-.2.4-.5.7-1,1,0,0-.1,0,0,0,.8-.2,1.7-.4,2.6-.6,2.5-.5,5.2-.8,7.7-.8,1.5,0,2.9.3,4.4.2,2.7-.2,12.8-.8,10.5,3.8,3.3-.5,9-.1,10.1,2.4.4,2.3-4.3,3.5-6.1,3.7-5.2.8-10.3.1-15.4,0-.5,0-1,0-1.5.1-.1,0-.3.2-.4.4-.2.3-.3.5-.4.8,0,0,0,.2,0,.3.2,0,.7-.1,1-.2,2.2-.5,5-.8,6.9.2.9.5.9,1.3.3,2.2-1,1.3-2.8,1.9-4.3,2.5-.1,0-.2,0-.3.1,0,.5.1,1,0,1.6,0,.6-.3,1.2-.3,1.7h.1c2.1-.7,4.4-1.2,6.7-1,2.2.2,4.5,1,3.4,2.8-.9,1.2-2.5,1.7-3.9,2.2-1.9.7-3.9,1.2-5.9,1.7-.9.2-2.1.6-3.1.6-1.1,0-2.1-.5-3.1-.6-.2,0-.6.7-.7.8,1.4-.1,3.3-.2,4.3,1.2.2.2.3.5.5.7.2.1.4.3.5.5.2.3,0,.5,0,.8.8,3.2-1.3,5.9-4.7,5.7-1.6,0-3.3-.5-3.4-2.2,0-.7.3-1.4.6-2,0-.2,0-.5,0-.7.1-.6,0-1.2,0-1.8,0-.1,0-.3,0-.4,0,0,0,0-.1,0-1.7.8-4,.8-5.8.2-1.7,1-3.7,2-5.6,2.6-.2,0-.2,0-.3.2-.3.3-.9,1-1.2,1.3-.2.2-.4.3-.4.6,0,.3-.3.4-.2.7.5.6.1,1-.2,1.6,0,.4-.2.6-.5.8-.1,0-.3.2-.4.3-1.3,1.6-3.2,2.9-4.8,4.3,0,.2.5.1.7.2.6.2,1.3.6,1.5,1.2,0,1.3-1.6,2.1-2.6,2.8-1.7,1.6-4.3,3-7,2.9-6.4,1.1-13.9-2.6-3.7-6,.4-1.4,1.8-2.8,3-3.8.1-.1.4-.2.1-.2-3.2.3-7.3-.3-8.5-3.6-.3-2.9,1.5-6,4.4-8.8,1.3-1.2,2.7-2.6,4.4-3.2,1-.4,2.2-.4,3.2,0,0,0,.1,0,.2,0,1.5-.9,3.3-1.3,5-1.4.8-.3,1.7-.9,2.6-1.2,0,0,0-.1,0-.2-.1-.9-.2-1.9-.2-2.8-.5-5-1.3-10-2.2-14.9-.9-.8-1.4-1.9-1-3,0-.2.2-.4,0-.4-1.1.4-3,.6-4,0,0,0-.1,0-.2,0-.2.2-.5.5-.8.8-1.4,1.4-3.1,2.4-4.8,3.3-.7.4-1.5.7-2.1,1.1,0,0,0,.3,0,.4,0,.1,0,.3,0,.4,1.3.5,2.2,1.4,2.3,2.6,0,0,0,.1.1.1,2.9-.2,6.9.5,8,2.8.6,1,.3,2.1,0,3.1-.6,1.8-2.5,3.3-4.2,4.5-2.9,1.7-6.4,1.2-9.2-.3-2.2.4-5.9,0-5.9-2.8,0,0,0-.1-.1-.2-1.8-.6-2.7-1.6-2.9-3.4-2.2-.9-2.5-3-1.7-5,0-.1.1-.3.1-.4-.1,0-.2,0-.3,0-3.3-.3-4.9-1.5-4.7-4.2,0-.8.4-1.7.7-2.6.4-2.2,1.6-5.2,3.7-6.7.1-.1.4-.2.4-.4-.5-.1-1.2-.4-1.6-.7h0c-2.3-1.7-1.6-4.9-.8-7.2,0,0,0,0,0,0-.4.2-.8.4-1.2.6-.1,0-.4.2-.3,0-5.8,9.3-9.4,20.2-9.9,32-1.5,36,26.5,66.4,62.5,67.8,1,0,2.1,0,3.1,0-.1,0-.2,0-.4,0-2-3.7-3.4-7.6-5.3-11.4-1.7-4.5-4.1-8.8-5.5-13.3-2.3-6.9-4.4-13.9-6.7-20.8-.2-.5-.4-1-.5-1.5,0-.7.7-1.3.7-2.1,0-.3,0-.7,0-1,.1-.1.5-.5.6-.7.4-.2,1-.4,1.5-.6.2,0,.3-.1.4,0,.5,1.5.9,3.1,1.5,4.7.2.5.3,1.1.5,1.5.1.1.3,0,.4-.1,1.8-.9,5.3-.5,6.2,1.1.9.3,1.9.9,1.6,1.8,0,0,0,0,0,.1.5.1,1,.3,1.4.6,1.2.4,2.1,1,3,1.8,7,4.5-7.3,8-9.2,2.5-.5-.6-1-1.2-1.4-1.8,0,0,0,0,0,0,0,0,0,0,0,.1,1.8,5.5,3.5,11,5.4,16.4.2.3,0,.5,0,.9-.9,2.6,1.1,4,2.7,5.6h0c2.5,5.3,4,10.7,6.5,16,0,0,0,.2,0,.2,33.1-1.9,60-28.6,61.4-62.4,1.5-36-26.5-66.4-62.5-67.9ZM118.5,168.3c.8,1.8,1.1,2.3,1,3.8-1.1,2.5-1.7,3.2-3.6,3.5-3,.5-4.7-1.7-5.3-3.4-.2-1.5-.4-1.7-.8-3.2-.5-.1-1-.3-1.6-.5-.6-.3-1.2-.7-1.4-1.2-.4,0-.8,0-1.1-.1-.3.2-.6.3-1,.5-.8.8-2.1,1.4-4.2,1.4-2.6,0-4.9-1.1-5.2-2.7-.1-1,.6-2.1,1.3-3,.3-.4.6-.8,1-1.2,0-.2-.1-.5-.2-.9,0-.2,0-.5.1-.7,1.5-2.1,6.9-1.2,7.7.5.6.2,1.2.4,1.6.6.2-.2.4-.3.7-.5,2.4-1.1,2.2-2.4,5.2-1.7,1,0,2.4,3.3,2.1,3.8,3.2,2.9,2.5,2.9,3.4,5ZM157.1,150.3c.6,1.5.4,2.7-.3,3.8,0,.4,0,.7-.1,1.1-1,2.5-6,3.7-9.7,3-6.2-.8-9.6-5.7-4.6-9,4.6-3.3,13.3-2,14.7,1.1ZM141,135.1c1.5-.3,3.1.2,4.4.6,0,0,.2,0,.3,0,3.6.7,7.2,1.9,8.4,3.9.9,2.3-3.5,3.1-7.1,2.1-2.4-.6-4.1-1.7-5.2-2.9-.5-.3-.9-.7-1.2-1.1-.4-.4-.4-.8-.2-1-.4-.7-.4-1.4.7-1.7ZM151.9,182.2c-1.8,1.2-3.4,1.2-3.2,1.3.3.3,0,.6,0,.6-5.6-1-5.7-2.8-5.7-2.8v-.3c0-.2-.2-.5-.5-1,0,0,0,0,0,0-3.7-1.6-6.6-3.6-9-5.7,0,0-1-1-1.8-1.8-.7-.7-1.1-1.6-1.1-2.6,0-.6.2-1.3.7-1.8.1-.2.3-.4.4-.6,1.2-.8,2.6-1.1,4-1.1,2.8,0,5.7,1.3,6.6,2.6.1.2.3.4.4.6.3.3.4.7.5,1,.5,1.5-1.2,2.6-3.5,2.6s-.3,0-.4,0c-.1,0-.2,0-.3,0-.7,0-1.3,0-1.9-.2,1,.9,2,1.8,3.7,3,.7.4,1.5.8,2.2,1.3.5.2,1,.5,1.5.8,2.2-1.8,7.1.1,7.2.4,0,.5-.4.4-.4.4,3.1,2,.8,3.3.8,3.3ZM163.2,172.2c-.3.4-.9.8-2.1,1-2.2.3-4.3-.3-5.5-1-.3-.2-.5-.5-.7-.7-1-.8-1.6-1.7-2-2.6-.5-1.3-1.6-2.8-.4-4.2,1.9-1.5,5.6-1.2,7.5-.4,1.3.5,2.1,1.3,2.6,2.1,1.8,2,2.5,4.6.5,5.9Z"/>
  <path class="st0" d="M105.7,66.2c-.7.4-1.4.7-2.1,1.1.8-.4,1.6-.8,2.4-1.2,0,0-.2,0-.3.1Z"/>
  <path class="st0" d="M100.9,68.8c-1,.5-2,1.2-3,1.9-6.6,4.4-12.4,10-17,16.4-.7,1-1.4,2-2,3,5.6-8.7,13.1-16.1,22.1-21.3Z"/>
  <path class="st0" d="M134.4,190.3c1,.1,2.1,0,3.1,0,0,0,.1,0,.1,0,0,0,0,0,0,0-1.1,0-2.2,0-3.3.1Z"/>
  <path class="st0" d="M101.3,68.5c0-.6-.3-1.1-.6-1.6-.9-1.3-3.1-2.5-5-2.2,0,0-2.2.4-3.3.8,0,0-.2,0-.3.1-.4-.4-1-.7-1.7-.9-.6-.8-1.7-1.4-3.2-1.4s-.2,0-.4,0c0,0-.7.9-.7.9-.5-1-1.2-1.7-2.3-2.3.1-2-.6-3.7-2.5-4.4-.6-.3-1.3-.4-2.1-.4-2.1,0-4.7.9-6.6,2.5-.4,0-.8,0-1.2.1-1.4-.4-2.9-.7-4.2-.7s-1.4,0-1.9.2c-1,.3-1.8,1.2-1.9,2.2-.2,1.3.4,3.3,1.3,5.2-.4.6-.9,1.1-1.5,1.9,0,0-.8.9-.8,1-2.3,2.3-1.9,4.3-.4,5.5.8.8,1.9,1.5,3.1,1.9-.3.7-.9,2.5-1,3.2-.5,2-.5,3.3.7,4.7.5.6,1.5.8,2.6.8s2.7-.2,3.9-.4c-1.5,3-1.5,5.5,2,6,.3,0,.6,0,.9,0,1.5,0,3-.3,4.4-.9,5.7-9.1,13.5-16.6,22.8-22ZM73.1,82.3c-1.6.9-3.1,1.1-3.9,0-.8-1.4-.5-3.4.5-5.7,2-.2,4.2-1.1,6.4-3,.4.9,1.1,1.7,2.1,2.2-1.5,1.7-3.5,4.1-5.1,6.4Z"/>
  <path class="st0" d="M104.2,62.6c-4.6-6.2-11-11.1-17.4-15.7-4.6-2.8-9.9-3.3-16.3-6-.8-.3-2.6-.4-4.7-.4s-5.7.1-8.3.1-4.2-.1-5.1-.5c-1.2-.4-1.9-1.4-3.4-1.4h-.1c-1.3,0-8.1.6-9.2,2.1-.9,1.1-.5,2,.3,2.4.8.6,6.1,2.8,7.1,3.1.6.2,2,.3,3.8.3,3.6,0,8.9-.3,12.6-.3s3.3,0,3.9.3c7.3,2.2,9.4,1.6,15,5.2,3.7,2.9,7.7,6.5,11.5,10.7,3.8-.3,7,.8,8.6,3,.3.5.7,1.1.9,1.8.9-.5,1.8-.9,2.7-1.4-.6-1.4-1.2-2.5-1.9-3.4Z"/>
  <path class="st0" d="M134,190.3c2,3.9,4,7.4,6.4,11.8-.3,1.9-1.8,4.9-3,6h0c-.9,0-1.5.2-1.9.4,0,0,0,0,0,0,0,0,0,0,0,0,0,0,0,0-.1,0,0,0-.1.1-.1.2-.4.3-.6.7-.8,1-.2.5-.6,1.1-.2,1.6.7.6,2.1.5,2.9.2.3-.1.5-.3.7-.4.7.2,1.6.4,2.4.4s1.4-.1,1.9-.5c.4-.5.3-.9,0-1.2,0,0,0,0,0,0,0,0,0,0,0,0-.2-.2-.3-.3-.6-.5.5-.6,1.3-1.7,1.6-2.1.3-.4.5-.9.6-1.4,1.8,1.6,3.5,3.1,5.7,5.4.4.5,1.8,1.1,3,1.1s1,0,1.4-.3c.5-.4,0-.9-.5-1.3-1.4-1.4-2.8-2.8-4.3-4.1-.5-.4-.8-.7-1.1-1,.5.3,1.1.6,1.7.9.9.3,2.1.5,3.3.5,1.7,0,3.3-.4,3.5-1.3,0,0,0,0,0,0,0,0,0,0,0,0,.3-.9-1.5-1.9-3.4-2.3-1-.3-2.1-.5-3.2-.5s-2.5.3-2.9,1.1c0,.3,0,.7.3,1-.3-.3-.7-.7-1.3-1.2-.7-.6-1.1-1.4-2.1-1.9-.1,0-.2-.1-.4-.2-.1-.2-.3-.4-.4-.6-1.6-3.3-3.7-7-5.5-10.8-1.2,0-2.5.1-3.7.1Z"/>
  <path class="st0" d="M226.7,95.4v-15.8c0,0,0-15.2,0-15.2,0-.2.1-.3.3-.3h12.8c6.4,0,11,2.5,11,7.7s-2,6.1-5.6,7.1c4.5,1,6.5,3.8,6.6,7.4,0,6.8-5.6,9.4-11.8,9.4h-13c-.2,0-.3-.1-.3-.3ZM239.8,77.2c3.4,0,5.5-1.4,5.5-4.5s-2.3-4.6-5.5-4.6h-7.6v9.1c0,0,7.6,0,7.6,0ZM232.2,91.8h7.6c3.7,0,6.3-1.4,6.3-5.5s-2.9-5.2-6.3-5.2h-7.7v10.7Z"/>
  <path class="st0" d="M252.6,95.4l10.9-31c0-.1.2-.3.4-.3h6.8c.2,0,.3.1.4.3l10.8,31c0,.2,0,.4-.2.4h-5.1c-.2,0-.3,0-.4-.3l-2.8-8.5h-12.4l-2.8,8.5c0,.2-.2.3-.4.3h-5c-.2,0-.4-.2-.3-.4ZM271.9,82.5l-4.8-14.6-4.7,14.6h9.5Z"/>
  <path class="st0" d="M284.3,95.4v-15.6c0,0,0-15.4,0-15.4,0-.2.1-.3.3-.3h6c.1,0,.3,0,.4.2l14.7,24.1-.2-8.1v-15.9c0-.2.1-.3.3-.3h4.6c.2,0,.3.1.3.3v15.4c0,0,0,15.6,0,15.6,0,.2-.1.3-.3.3h-6.3c-.1,0-.3,0-.4-.2l-14.4-23.9.2,8.7v15.1c0,.2,0,.3-.3.3h-4.6c-.2,0-.3-.1-.3-.3Z"/>
  <path class="st0" d="M314,80c0-10,6.2-16.4,15-16.4s12.3,3.7,13.9,10.4c0,.2,0,.4-.3.4h-5.1c-.2,0-.3,0-.3-.3-1-4.2-3.9-6.3-8.2-6.3s-9.3,4.6-9.3,12.2,3.6,12.2,9.4,12.2,8.4-3.3,8.6-9h-8.8c-.2,0-.3-.1-.3-.3v-3.5c0-.2.1-.3.3-.3h14.3c.2,0,.3.1.3.4,0,11.2-5,17-14.4,17s-15.2-6.6-15.2-16.4Z"/>
  <path class="st0" d="M346.9,95.4v-15.7c.1,0,0-15.3,0-15.3,0-.2.1-.3.3-.3h4.9c.2,0,.3.1.3.3v13.9s10.5-14.1,10.5-14.1c0-.1.2-.2.4-.2h5.8c.3,0,.4.2.2.4l-10.3,12.3,12.6,18.5c.1.2,0,.4-.2.4h-6.1c-.1,0-.3,0-.4-.2l-9.4-14.3-3.1,3.7v10.5c0,.2,0,.3-.3.3h-4.9c-.2,0-.3-.1-.3-.3Z"/>
  <path class="st0" d="M369.5,80c0-10.1,6.1-16.5,15.5-16.5s15.5,6.3,15.5,16.5-6.2,16.4-15.6,16.4-15.5-6.6-15.5-16.4ZM385,92.1c6.2,0,9.8-4.6,9.8-12.1s-3.6-12.2-9.9-12.2-9.8,4.6-9.8,12.2,3.7,12.1,9.8,12.1Z"/>
  <path class="st0" d="M403.9,95.4v-15.7c.1,0,0-15.3,0-15.3,0-.2.1-.3.3-.3h4.9c.2,0,.3.1.3.3v13.9s10.5-14.1,10.5-14.1c0-.1.2-.2.4-.2h5.8c.3,0,.4.2.2.4l-10.3,12.3,12.6,18.5c.1.2,0,.4-.2.4h-6.1c-.1,0-.3,0-.4-.2l-9.4-14.3-3.1,3.7v10.5c0,.2,0,.3-.3.3h-4.9c-.2,0-.3-.1-.3-.3Z"/>
  <path class="st0" d="M226.4,126.5v-9.9c0,0,0-9.5,0-9.5,0-.1,0-.2.2-.2h2.3c.1,0,.2,0,.2.2v9.5c0,0,0,9.9,0,9.9,0,.1,0,.2-.2.2h-2.3c-.1,0-.2,0-.2-.2Z"/>
  <path class="st0" d="M232.1,126.5v-9.8c0,0,0-9.5,0-9.5,0-.1,0-.2.2-.2h2.8c0,0,.2,0,.2.1l10.3,16v-6.2c0,0-.1-9.7-.1-9.7,0-.1,0-.2.2-.2h2.2c.1,0,.2,0,.2.2v9.5c0,0,0,9.8,0,9.8,0,.1,0,.2-.2.2h-2.9c0,0-.2,0-.2-.1l-10.2-15.8v6.2c0,0,.1,9.6.1,9.6,0,.1,0,.2-.2.2h-2.2c-.1,0-.2,0-.2-.2Z"/>
  <path class="st0" d="M255.9,126.5v-9.6c.1,0,0-7.9,0-7.9h-5.5c-.1,0-.2,0-.2-.2v-1.7c0-.1,0-.2.2-.2h13.8c0,0,.2,0,.2.2v1.7c0,.1,0,.2-.2.2h-5.6v7.9c0,0,0,9.6,0,9.6,0,.1,0,.2-.2.2h-2.4c-.1,0-.2,0-.2-.2Z"/>
  <path class="st0" d="M266.5,126.5v-10c0,0,0-9.3,0-9.3,0-.1,0-.2.2-.2h12c.1,0,.2,0,.2.2v1.7c0,.1,0,.2-.2.2h-9.5v6.2c0,0,8.9,0,8.9,0,.1,0,.2,0,.2.2v1.7c0,.1,0,.2-.2.2h-8.9v7.5h9.8c.1,0,.2,0,.2.2v1.7c0,.1,0,.2-.2.2h-12.2c-.1,0-.2,0-.2-.2Z"/>
  <path class="st0" d="M281.4,126.5v-10c0,0,0-9.3,0-9.3,0-.1,0-.2.2-.2h6.9c4.5,0,7.2,1.9,7.2,5.8s-1.9,5-4.8,5.6l5.2,8.1c0,.1,0,.2-.1.2h-2.7c0,0-.2,0-.2-.1l-1.9-3.2-3.1-4.8h-4.1v7.9c0,.1,0,.2-.1.2h-2.3c-.1,0-.2,0-.2-.2ZM288.8,116.6c2.6,0,4.4-1.1,4.4-3.8s-1.6-3.8-4.4-3.8h-4.7v7.6c0,0,4.7,0,4.7,0Z"/>
  <path class="st0" d="M298.3,126.5v-9.8c0,0,0-9.5,0-9.5,0-.1,0-.2.2-.2h2.8c0,0,.2,0,.2.1l10.3,16v-6.2c0,0-.1-9.7-.1-9.7,0-.1,0-.2.2-.2h2.2c.1,0,.2,0,.2.2v9.5c0,0,0,9.8,0,9.8,0,.1,0,.2-.2.2h-2.9c0,0-.2,0-.2-.1l-10.2-15.8v6.2c0,0,.1,9.6.1,9.6,0,.1,0,.2-.2.2h-2.2c-.1,0-.2,0-.2-.2Z"/>
  <path class="st0" d="M316,126.4l6.9-19.3c0-.1.1-.1.2-.1h3.2c0,0,.2,0,.2.1l6.9,19.3c0,.1,0,.2-.1.2h-2.4c0,0-.2,0-.2-.1l-2-5.8h-8l-2,5.8c0,.1-.1.1-.2.1h-2.3c-.1,0-.2,0-.1-.2ZM328,118.6l-3.3-9.7-3.3,9.7h6.6Z"/>
  <path class="st0" d="M336.6,126.5v-9.6c.1,0,0-7.9,0-7.9h-5.5c-.1,0-.2,0-.2-.2v-1.7c0-.1,0-.2.2-.2h13.8c0,0,.2,0,.2.2v1.7c0,.1,0,.2-.2.2h-5.6v7.9c0,0,0,9.6,0,9.6,0,.1,0,.2-.2.2h-2.4c-.1,0-.2,0-.2-.2Z"/>
  <path class="st0" d="M347.4,126.5v-9.9c0,0,0-9.5,0-9.5,0-.1,0-.2.2-.2h2.3c.1,0,.2,0,.2.2v9.5c0,0,0,9.9,0,9.9,0,.1,0,.2-.2.2h-2.3c-.1,0-.2,0-.2-.2Z"/>
  <path class="st0" d="M352.6,116.8c0-6.3,3.7-10.2,9.4-10.2s9.4,3.9,9.4,10.2-3.7,10.2-9.4,10.2-9.4-4-9.4-10.2ZM362,125c4.2,0,6.7-3.1,6.7-8.1s-2.5-8.2-6.7-8.2-6.7,3.1-6.7,8.2,2.6,8.1,6.7,8.1Z"/>
  <path class="st0" d="M373.8,126.5v-9.8c0,0,0-9.5,0-9.5,0-.1,0-.2.2-.2h2.8c0,0,.2,0,.2.1l10.3,16v-6.2c0,0-.1-9.7-.1-9.7,0-.1,0-.2.2-.2h2.2c.1,0,.2,0,.2.2v9.5c0,0,0,9.8,0,9.8,0,.1,0,.2-.2.2h-2.9c0,0-.2,0-.2-.1l-10.2-15.8v6.2c0,0,.1,9.6.1,9.6,0,.1,0,.2-.2.2h-2.2c-.1,0-.2,0-.2-.2Z"/>
  <path class="st0" d="M391.5,126.4l6.9-19.3c0-.1.1-.1.2-.1h3.2c0,0,.2,0,.2.1l6.9,19.3c0,.1,0,.2-.1.2h-2.4c0,0-.2,0-.2-.1l-2-5.8h-8l-2,5.8c0,.1-.1.1-.2.1h-2.3c-.1,0-.2,0-.1-.2ZM403.5,118.6l-3.3-9.7-3.3,9.7h6.6Z"/>
  <path class="st0" d="M410.7,126.5v-10.2c0,0,0-9.1,0-9.1,0-.1,0-.2.2-.2h2.3c.1,0,.2,0,.2.2v9c0,0,0,8.4,0,8.4h8.8c0,0,.2,0,.2.2v1.7c0,.1,0,.2-.2.2h-11.3c-.1,0-.2,0-.2-.2Z"/>
  <path class="st0" d="M226.3,157.3v-9.7c0,0,0-9.7,0-9.7,0-.1,0-.2.2-.2h11.7c0,0,.2,0,.2.2v1.7c0,.1,0,.2-.2.2h-9.2v7c0,0,8.7,0,8.7,0,0,0,.2,0,.2.2v1.7c0,.1,0,.2-.2.2h-8.8v8.4c0,.1,0,.2-.1.2h-2.3c-.1,0-.2,0-.2-.2Z"/>
  <path class="st0" d="M239.8,157.3v-9.9c0,0,0-9.5,0-9.5,0-.1,0-.2.2-.2h2.3c.1,0,.2,0,.2.2v9.5c0,0,0,9.9,0,9.9,0,.1,0,.2-.2.2h-2.3c-.1,0-.2,0-.2-.2Z"/>
  <path class="st0" d="M244.6,157.3v-10.2c0,0,0-9.1,0-9.1,0-.1,0-.2.2-.2h2.3c.1,0,.2,0,.2.2v9c0,0,0,8.4,0,8.4h8.8c0,0,.2,0,.2.2v1.7c0,.1,0,.2-.2.2h-11.3c-.1,0-.2,0-.2-.2Z"/>
  <path class="st0" d="M257.6,157.3v-9.5c0,0,0-9.9,0-9.9,0-.1,0-.2.2-.2h3.3c0,0,.2,0,.2.1l6.3,16.2,6.1-16.2c0-.1.1-.1.2-.1h3.1c.1,0,.2,0,.2.2v9.9c0,0,0,9.5,0,9.5,0,.1,0,.2-.2.2h-2.3c-.1,0-.2,0-.2-.2v-9s.1-6.9.1-6.9l-6.1,16c0,.1-.1.1-.2.1h-1.8c0,0-.2,0-.2-.1l-6.3-16.2v7.1c0,0,.1,9,.1,9,0,.1,0,.2-.2.2h-2.1c-.1,0-.2,0-.2-.2Z"/>
  <path class="st0" d="M288.9,157.3v-9.7c0,0,0-9.7,0-9.7,0-.1,0-.2.2-.2h11.7c0,0,.2,0,.2.2v1.7c0,.1,0,.2-.2.2h-9.2v7c0,0,8.7,0,8.7,0,0,0,.2,0,.2.2v1.7c0,.1,0,.2-.2.2h-8.8v8.4c0,.1,0,.2-.1.2h-2.3c-.1,0-.2,0-.2-.2Z"/>
  <path class="st0" d="M302.2,157.3v-10c0,0,0-9.3,0-9.3,0-.1,0-.2.2-.2h12c.1,0,.2,0,.2.2v1.7c0,.1,0,.2-.2.2h-9.5v6.2c0,0,8.9,0,8.9,0,.1,0,.2,0,.2.2v1.7c0,.1,0,.2-.2.2h-8.9v7.5h9.8c.1,0,.2,0,.2.2v1.7c0,.1,0,.2-.2.2h-12.2c-.1,0-.2,0-.2-.2Z"/>
  <path class="st0" d="M315.5,150.9c0-.1,0-.2.2-.2h2.4c0,0,.2,0,.2.2.3,3,1.6,4.9,5.5,4.9s4.9-1.1,4.9-3.7c0-5.5-12.8-1.5-12.8-9s2.8-5.6,7.2-5.6,7.3,1.9,7.7,6c0,.1,0,.2-.1.2h-2.4c0,0-.2,0-.2-.2-.2-2.6-1.9-4-5.1-4s-4.6,1-4.6,3.3c0,5.1,12.8,1.3,12.8,8.9s-3.1,6.1-7.6,6.1-8-2.4-8.2-6.9Z"/>
  <path class="st0" d="M336.7,157.3v-9.6c.1,0,0-7.9,0-7.9h-5.5c-.1,0-.2,0-.2-.2v-1.7c0-.1,0-.2.2-.2h13.8c0,0,.2,0,.2.2v1.7c0,.1,0,.2-.2.2h-5.6v7.9c0,0,0,9.6,0,9.6,0,.1,0,.2-.2.2h-2.4c-.1,0-.2,0-.2-.2Z"/>
  <path class="st0" d="M346.7,157.3v-9.9c0,0,0-9.5,0-9.5,0-.1,0-.2.2-.2h2.3c.1,0,.2,0,.2.2v9.5c0,0,0,9.9,0,9.9,0,.1,0,.2-.2.2h-2.3c-.1,0-.2,0-.2-.2Z"/>
  <path class="st0" d="M350.6,137.9h2.6c0,0,.2,0,.2.1l5.7,17.1,5.7-17.1c0-.1.1-.1.2-.1h2.2c.1,0,.2,0,.1.2l-6.7,19.3c0,.1-.1.1-.2.1h-3.1c0,0-.2,0-.2-.1l-6.8-19.3c0-.1,0-.2.1-.2Z"/>
  <path class="st0" d="M364.2,157.3l6.9-19.3c0-.1.1-.1.2-.1h3.2c0,0,.2,0,.2.1l6.9,19.3c0,.1,0,.2-.1.2h-2.4c0,0-.2,0-.2-.1l-2-5.8h-8l-2,5.8c0,.1-.1.1-.2.1h-2.3c-.1,0-.2,0-.1-.2ZM376.2,149.5l-3.3-9.7-3.3,9.7h6.6Z"/>
  <path class="st0" d="M382.6,157.3v-10.2c0,0,0-9.1,0-9.1,0-.1,0-.2.2-.2h2.3c.1,0,.2,0,.2.2v9c0,0,0,8.4,0,8.4h8.8c0,0,.2,0,.2.2v1.7c0,.1,0,.2-.2.2h-11.3c-.1,0-.2,0-.2-.2Z"/>
  <path class="st0" d="M414.1,143.3c0-2.2-1.2-3.8-3.8-3.8-2.4,0-3.9,1.7-4,4.9,0,.1,0,.2-.2.2h-2c-.1,0-.2,0-.2-.2,0-4.4,2.3-6.8,6.4-6.8,4,0,6.1,2.2,6.2,5.7,0,7-10.1,6.1-10.1,11.4v.9h9.8c.1,0,.2,0,.2.2v1.7c0,.1,0,.2-.2.2h-12.1c-.1,0-.2,0-.2-.2v-2.4c0-7.6,10.1-6.6,10.1-11.6Z"/>
  <path class="st0" d="M424.8,137.5c4.3,0,7.1,3.6,7.1,10.2s-2.8,10.2-7.1,10.2-7.1-3.7-7.1-10.2,2.8-10.2,7.1-10.2ZM429.2,147.7c0-5.4-1.6-8.1-4.4-8.1s-4.3,2.8-4.3,8.1,1.7,8.1,4.4,8.1,4.4-2.7,4.4-8.1Z"/>
  <path class="st0" d="M443.3,143.3c0-2.2-1.2-3.8-3.8-3.8-2.4,0-3.9,1.7-4,4.9,0,.1,0,.2-.2.2h-2c-.1,0-.2,0-.2-.2,0-4.4,2.3-6.8,6.4-6.8,4,0,6.1,2.2,6.2,5.7,0,7-10.1,6.1-10.1,11.4v.9h9.8c.1,0,.2,0,.2.2v1.7c0,.1,0,.2-.2.2h-12.1c-.1,0-.2,0-.2-.2v-2.4c0-7.6,10.1-6.6,10.1-11.6Z"/>
  <path class="st0" d="M446.9,152.2c0-.1,0-.2.1-.2h2.3c0,0,.2,0,.2.2.1,2.2,1.4,3.8,3.8,3.8s4.1-2,4.1-5.4-1.4-5.2-4-5.2-3.3,1.1-3.8,3c0,0,0,.1-.2.1h-2c-.1,0-.2,0-.2-.2l.7-10.3c0,0,0-.2.2-.2h10.5c0,0,.2,0,.2.2v1.7c0,.1,0,.2-.2.2h-8.4l-.4,5.4c1.1-1.2,2.4-1.9,4.3-1.9,3.5,0,6.1,2.6,6.1,6.9s-2.8,7.5-6.9,7.5-6.1-2.2-6.4-5.6Z"/>
  <path class="st0" d="M226.1,182.4v-8.2c0,0,0-.1,0-.1h1.5c0,0,.1,0,.1.1v5.1s0,3,0,3c0,.8.2,1.1.7,1.1s.2,0,.3,0c0,0,.1,0,.1,0v.9c0,0,0,.1-.1.1-.2,0-.5,0-.7,0-1.3,0-2-.7-2-2.2Z"/>
  <path class="st0" d="M230.8,184.3v-4.6s0-5.5,0-5.5c0,0,0-.1.1-.1h1.4c0,0,.1,0,.1.1v1.8c.7-1.3,1.9-2.1,3.3-2.1,2.1,0,3.4,1.5,3.4,4.1v6.4c0,0,0,.1,0,.1h-1.5c0,0-.1,0-.1-.1v-4.3s0-2,0-2c0-1.8-.8-2.8-2.1-2.8s-2.3,1.2-2.8,3.2v6c0,0,0,.1,0,.1h-1.5c0,0-.1,0-.1-.1Z"/>
  <path class="st0" d="M241.2,184.3v-4.3s0-1.9,0-1.9c0-2.7,1.5-4.2,4.2-4.2s.8,0,1.2.1h3.5c0,0,.1,0,.1.1v1c0,0,0,.1-.1.1h-1.5c.8.6,1.3,1.6,1.3,2.9v6.2c0,0,0,.1,0,.1h-1.5c0,0-.1,0-.1-.1v-4.3s0-1.9,0-1.9c0-2-.9-3-2.6-3s-2.6,1-2.6,3v2.3c.6-1.2,1.5-1.8,2.7-1.8s.4,0,.7,0c0,0,.1,0,.1.1v1.1c0,0,0,.1-.1.1-.2,0-.4,0-.6,0-1.5,0-2.6,1-2.7,2.7v1.7c0,0,0,.1-.1.1h-1.5c0,0-.1,0-.1-.1Z"/>
  <path class="st0" d="M252,184.3v-3.6c0-1,.5-1.7,1.4-2.1h-1.6c0,0-.1,0-.1-.1v-.8c0-2.5,1.6-3.9,4.5-3.9s4.3,1.3,4.3,3.8v6.7c0,0,0,.1,0,.1h-1.5c0,0-.1,0-.1-.1v-4.2s0-2.5,0-2.5c0-1.7-.9-2.6-2.8-2.6s-2.8.9-2.8,2.5h2.1c0,0,.1,0,.1.1v.9c0,0,0,.1-.1.1-1.2.2-1.6.8-1.6,2v3.6c0,0,0,.1,0,.1h-1.5c0,0-.1,0-.1-.1Z"/>
  <path class="st0" d="M267.4,184.3v-4s0-2.9,0-2.9c0-1.5-.6-2.3-1.8-2.3s-1.8.8-1.8,2.3c0,0,0,.1-.1.1h-1.4c0,0-.1,0-.1-.1,0-2.3,1.3-3.6,3.5-3.6s3.4,1.3,3.4,3.6v6.9c0,0,0,.1,0,.1h-1.5c0,0-.1,0-.1-.1Z"/>
  <path class="st0" d="M271,181.7c0-1.7,1.1-2.7,3.7-3.1,2.6-.4,3.3-.8,3.3-1.7s-.9-1.8-2.4-1.8-2.5.7-2.6,2.1c0,0,0,0,0,.1,0,0,0,0,0,0h-1.4c0,0-.1,0-.1-.1,0-2.1,1.7-3.3,4.2-3.3s4,1.2,4,3.5v7c0,0,0,.1,0,.1h-1.5c0,0-.1,0-.1-.1v-4.3s0-1.1,0-1.1c-.4.4-1.1.6-3,.9-1.5.3-2.3.9-2.3,1.9s.8,1.7,2.2,1.7.7,0,1.1-.1c0,0,.1,0,.1,0v.9s0,0,0,0c0,0,0,0-.1,0-.4.1-.9.2-1.5.2-2.3,0-3.5-1-3.5-2.9Z"/>
  <path class="st0" d="M281.5,184.4c0,0-.1,0-.1-.1v-1c0,0,0-.1.1,0,.2,0,.4,0,.6,0,.6,0,.9-.4.9-1.3v-1.4c0-1,.4-1.6,1.2-2h-1.8c0,0-.1,0-.1-.1v-.8c0-2.5,1.6-3.9,4.5-3.9s4.4,1.3,4.4,3.8v6.7c0,0,0,.1,0,.1h-1.5c0,0-.1,0-.1-.1v-4.2s0-2.5,0-2.5c0-1.7-1-2.6-2.8-2.6s-2.8.9-2.8,2.5h2.3c0,0,.1,0,.1.1v.9c0,0,0,.1-.1.1-1.2.2-1.5.7-1.5,1.9v1.5c0,1.6-.7,2.4-2.1,2.4s-.6,0-.9,0Z"/>
  <path class="st0" d="M298,184.3v-4s0-2.9,0-2.9c0-1.5-.6-2.3-1.8-2.3s-1.8.8-1.8,2.3c0,0,0,.1-.1.1h-1.4c0,0-.1,0-.1-.1,0-2.3,1.3-3.6,3.5-3.6s3.4,1.3,3.4,3.6v6.9c0,0,0,.1,0,.1h-1.5c0,0-.1,0-.1-.1Z"/>
  <path class="st0" d="M303.2,184.3l-2.1-10.1s0,0,0-.1c0,0,0,0,0,0h1.5s0,0,0,.1l1.7,8.2,1.9-8.2c0,0,0,0,.1,0h1.2c0,0,0,0,.1,0l1.9,8.2,1.7-8.2c0,0,0-.1.1-.1h1.5c0,0,.1,0,0,.1l-2.1,10.1c0,0,0,.1-.1.1h-1.8c0,0,0,0-.1-.1l-1.9-7.6-1.8,7.6c0,0,0,.1-.1.1h-1.8c0,0,0,0-.1-.1Z"/>
  <path class="st0" d="M314.7,181.4c0-1.3.7-2.2,1.8-2.5-1.2-.4-1.8-1.3-1.8-2.5s1-2.5,2.9-2.5,1.2,0,1.7.3c0,0,0,0,0,.1v.9c0,0,0,.1-.1,0-.4-.1-.8-.2-1.2-.2-1,0-1.6.5-1.6,1.5s.7,1.7,1.8,1.7h1.2c0,0,.1,0,.1.1v.9c0,0,0,.1-.1.1h-1c-1.2,0-1.9.6-1.9,1.8s.9,2.1,2.4,2.1,2.6-1,2.6-2.8v-6.4c0,0,0-.1,0-.1h1.5c0,0,.1,0,.1.1v4.4s0,2.1,0,2.1c0,2.6-1.6,4-4.3,4s-4.1-1.2-4.1-3.2Z"/>
  <path class="st0" d="M325.2,180.6v-6.4c0,0,0-.1,0-.1h1.5c0,0,.1,0,.1.1v4.3s0,2,0,2c0,1.8.8,2.9,2.1,2.9s2.3-1.2,2.8-3.2v-6c0,0,0-.1,0-.1h1.5c0,0,.1,0,.1.1v4.6s0,5.5,0,5.5c0,0,0,.1-.1.1h-1.4c0,0-.1,0-.1-.1v-1.8c-.7,1.3-1.9,2.1-3.3,2.1-2.1,0-3.3-1.5-3.3-4.1Z"/>
  <path class="st0" d="M335.4,179.2c0-3.5,1.1-5.4,2.9-5.4s1.6.5,2,1.5c.3-1,1-1.5,2-1.5,1.5,0,2.3,1.1,2.3,3.3v7.2c0,0,0,.1,0,.1h-1.5c0,0-.1,0-.1-.1v-4.3s0-3,0-3c0-1.3-.3-1.9-1.1-1.9s-1,.6-1.2,1.8c0,0,0,0,0,0h-.7s0,0,0,0c0,0,0,0,0-.1-.1-1.2-.5-1.7-1.1-1.7-1,0-1.5,1.4-1.5,4.1s.9,4.2,2.7,4.2.7,0,1.1-.1c0,0,.1,0,.1,0v.9s0,0,0,0c0,0,0,0-.1,0-.5.1-1,.2-1.5.2-2.6,0-4-1.9-4-5.4Z"/>
  <path class="st0" d="M346.4,181.1c0,0,0-.1.1-.1h1.4c0,0,.1,0,.1.1,0,1.5,1,2.3,2.5,2.3s2.3-.7,2.3-1.8c0-2.9-6.2-.9-6.2-4.8s1.5-3,3.7-3,3.8,1.1,3.9,3.1c0,0,0,.1-.1.1h-1.4c0,0-.1,0-.1-.1-.1-1.2-.9-1.9-2.3-1.9s-2.1.6-2.1,1.6c0,2.7,6.3.6,6.3,4.8s-1.5,3.2-3.9,3.2-4.1-1.3-4.2-3.6Z"/>
  <path class="st0" d="M351.3,173.1v-.6c0-1.1.7-1.7,2.1-1.7h1.6c0,0,.1,0,.1.1v.9c0,0,0,.1-.1.1h-1.3c-.6,0-.9.3-.9.8v.4c0,0,0,.1-.1.1h-1.3c0,0-.1,0-.1-.1Z"/>
  <path class="st0" d="M356.4,180.6v-6.4c0,0,0-.1,0-.1h1.5c0,0,.1,0,.1.1v4.3s0,2,0,2c0,1.8.8,2.9,2.1,2.9s2.3-1.2,2.8-3.2v-6c0,0,0-.1,0-.1h1.5c0,0,.1,0,.1.1v4.6s0,5.5,0,5.5c0,0,0,.1-.1.1h-1.4c0,0-.1,0-.1-.1v-1.8c-.7,1.3-1.9,2.1-3.3,2.1-2.1,0-3.3-1.5-3.3-4.1Z"/>
  <path class="st0" d="M371.7,184.3v-4s0-2.9,0-2.9c0-1.5-.6-2.3-1.8-2.3s-1.8.8-1.8,2.3c0,0,0,.1-.1.1h-1.4c0,0-.1,0-.1-.1,0-2.3,1.3-3.6,3.5-3.6s3.4,1.3,3.4,3.6v6.9c0,0,0,.1,0,.1h-1.5c0,0-.1,0-.1-.1Z"/>
  <path class="st0" d="M375.4,180.6v-6.4c0,0,0-.1,0-.1h1.5c0,0,.1,0,.1.1v4.3s0,2,0,2c0,1.8.8,2.9,2.1,2.9s2.3-1.2,2.8-3.2v-6c0,0,0-.1,0-.1h1.5c0,0,.1,0,.1.1v4.6s0,5.5,0,5.5c0,0,0,.1-.1.1h-1.4c0,0-.1,0-.1-.1v-1.8c-.7,1.3-1.9,2.1-3.3,2.1-2.1,0-3.3-1.5-3.3-4.1Z"/>
  <path class="st0" d="M390.7,184.3v-4s0-2.9,0-2.9c0-1.5-.6-2.3-1.8-2.3s-1.8.8-1.8,2.3c0,0,0,.1-.1.1h-1.4c0,0-.1,0-.1-.1,0-2.3,1.3-3.6,3.5-3.6s3.4,1.3,3.4,3.6v6.9c0,0,0,.1,0,.1h-1.5c0,0-.1,0-.1-.1Z"/>
  <path class="st0" d="M394.3,181c0-2.9,2.2-3.6,2.2-5s-.4-.9-1.1-.9-.7,0-1,.1c0,0-.1,0-.1-.1v-.9c0,0,0,0,0-.1.4-.1.9-.2,1.4-.2,1.4,0,2.3.6,2.3,2,0,2.2-2.2,2.6-2.2,5.1s.7,2.4,2.2,2.4,2.3-.9,2.3-2.6v-1.3c0-1-.4-1.5-1.1-1.5h-.4c0,0-.1,0-.1,0v-1c0,0,0-.1.1-.1h.4c1.1,0,1.6-.9,1.5-2.8,0,0,0-.1.1-.1h1.4c0,0,.1,0,.1.1,0,2-.5,3.1-1.7,3.4,1,.3,1.4,1,1.4,2.2v1.3c0,2.4-1.5,3.8-4,3.8s-3.9-1.4-3.9-3.6Z"/>
  <path class="st0" d="M409.1,184.3v-4s0-2.9,0-2.9c0-1.5-.6-2.3-1.8-2.3s-1.8.8-1.8,2.3c0,0,0,.1-.1.1h-1.4c0,0-.1,0-.1-.1,0-2.3,1.3-3.6,3.5-3.6s3.4,1.3,3.4,3.6v6.9c0,0,0,.1,0,.1h-1.5c0,0-.1,0-.1-.1Z"/>
  <path class="st0" d="M412.6,179.2c0-3.5,1.1-5.4,2.9-5.4s1.6.5,2,1.5c.3-1,1-1.5,2-1.5,1.5,0,2.3,1.1,2.3,3.3v7.2c0,0,0,.1,0,.1h-1.5c0,0-.1,0-.1-.1v-4.3s0-3,0-3c0-1.3-.3-1.9-1.1-1.9s-1,.6-1.2,1.8c0,0,0,0,0,0h-.7s0,0,0,0c0,0,0,0,0-.1-.1-1.2-.5-1.7-1.1-1.7-1,0-1.5,1.4-1.5,4.1s.9,4.2,2.7,4.2.7,0,1.1-.1.1,0,.1,0v.9s0,0,0,0c0,0,0,0-.1,0-.5.1-.9.2-1.5.2-2.6,0-4-1.9-4-5.4Z"/>
  <path class="st0" d="M414.1,173.1v-.9c0,0,0-.1.1-.1h7.3c0,0,.1,0,.1.1v.9c0,0,0,.1-.1.1h-7.3c0,0-.1,0-.1-.1Z"/>
  <path class="st0" d="M226.1,206.7v-3.6c0-1,.5-1.7,1.4-2.1h-1.6c0,0-.1,0-.1-.1v-.8c0-2.5,1.6-3.9,4.5-3.9s4.3,1.3,4.3,3.8v6.7c0,0,0,.1,0,.1h-1.5c0,0-.1,0-.1-.1v-4.2s0-2.5,0-2.5c0-1.7-.9-2.6-2.8-2.6s-2.8.9-2.8,2.5h2.1c0,0,.1,0,.1.1v.9c0,0,0,.1-.1.1-1.2.2-1.6.8-1.6,2v3.6c0,0,0,.1,0,.1h-1.5c0,0-.1,0-.1-.1Z"/>
  <path class="st0" d="M236.3,203.5c0,0,0-.1.1-.1h1.4c0,0,.1,0,.1.1,0,1.5,1,2.3,2.5,2.3s2.3-.7,2.3-1.8c0-2.9-6.2-.9-6.2-4.8s1.5-3,3.7-3,3.8,1.1,3.9,3.1c0,0,0,.1-.1.1h-1.4c0,0-.1,0-.1-.1-.1-1.2-.9-1.9-2.3-1.9s-2.1.6-2.1,1.6c0,2.7,6.3.6,6.3,4.8s-1.5,3.2-3.9,3.2-4.1-1.3-4.2-3.6Z"/>
  <path class="st0" d="M242.5,210.9v-2.1h-1c0,0-.1,0-.1-.1v-.9c0,0,0-.1.1-.1h2.4c0,0,.1,0,.1.1v3.1c0,0,0,.1-.1.1h-1.3c0,0-.1,0-.1-.1Z"/>
  <path class="st0" d="M248,206.7l-2.4-10.1c0,0,0-.1.1-.1h1.5c0,0,.1,0,.1,0l2.1,9.1h.4c1.9,0,2.9-1.6,2.9-4.4s-.9-3.8-2.4-3.8-.7,0-1,.1c0,0-.1,0-.1,0v-.9c0,0,0,0,0-.1.4-.1,1-.2,1.5-.2,2.4,0,3.8,1.8,3.8,5s-1.6,5.6-4.6,5.6h-1.8c0,0-.1,0-.1-.1Z"/>
  <path class="st0" d="M256.5,204.8v-8.2c0,0,0-.1,0-.1h1.5c0,0,.1,0,.1.1v5.1s0,3,0,3c0,.8.2,1.1.7,1.1s.2,0,.3,0c0,0,.1,0,.1,0v.9c0,0,0,.1-.1.1-.2,0-.5,0-.7,0-1.3,0-2-.7-2-2.2Z"/>
  <path class="st0" d="M261.1,206.7v-4.6s0-5.5,0-5.5c0,0,0-.1.1-.1h1.4c0,0,.1,0,.1.1v1.8c.7-1.3,1.9-2.1,3.3-2.1,2.1,0,3.4,1.5,3.4,4.1v6.4c0,0,0,.1,0,.1h-1.5c0,0-.1,0-.1-.1v-4.3s0-2,0-2c0-1.8-.8-2.8-2.1-2.8s-2.3,1.2-2.8,3.2v6c0,0,0,.1,0,.1h-1.5c0,0-.1,0-.1-.1Z"/>
  <path class="st0" d="M272.9,206.7l-2.1-10.1s0,0,0-.1c0,0,0,0,0,0h1.5s0,0,0,.1l1.7,8.2,1.9-8.2c0,0,0,0,.1,0h1.2c0,0,0,0,.1,0l1.9,8.2,1.7-8.2c0,0,0-.1.1-.1h1.5c0,0,.1,0,0,.1l-2.1,10.1c0,0,0,.1-.1.1h-1.8c0,0,0,0-.1-.1l-1.9-7.6-1.8,7.6c0,0,0,.1-.1.1h-1.8c0,0,0,0-.1-.1Z"/>
  <path class="st0" d="M286.2,205v1.8c0,0,0,.1,0,.1h-1.4c0,0-.1,0-.1-.1v-5.5s0-4.6,0-4.6c0,0,0-.1.1-.1h1.5c0,0,.1,0,.1.1v4.3s0,1.7,0,1.7c.5,2,1.4,3.2,2.8,3.2s2.1-1.1,2.1-3v-6.2c0,0,0-.1,0-.1h1.5c0,0,.1,0,.1.1v4.3s0,2,0,2c0,2.7-1.2,4.2-3.3,4.2s-2.6-.8-3.3-2.1Z"/>
  <path class="st0" d="M295,206.7v-5.1s0-5.1,0-5.1c0,0,0-.1.1-.1h1.5c0,0,.1,0,.1.1v3.4s2.4,0,2.4,0c1.6,0,2.5-.8,2.5-2.2v-1.1c0,0,0-.1.1-.1h1.4c0,0,.1,0,.1.1v1.1c0,1.6-.8,2.6-2.2,2.9,1,.2,1.5,1,1.8,2.4l.8,3.8c0,0,0,.1,0,.1h-1.5c0,0-.1,0-.1-.1l-.7-3.3c-.3-1.7-.9-2.3-2.1-2.3h-2.4v5.6c0,0,0,.1,0,.1h-1.5c0,0-.1,0-.1-.1Z"/>
  <path class="st0" d="M310.2,206.7v-4s0-2.9,0-2.9c0-1.5-.6-2.3-1.8-2.3s-1.8.8-1.8,2.3c0,0,0,.1-.1.1h-1.4c0,0-.1,0-.1-.1,0-2.3,1.3-3.6,3.5-3.6s3.4,1.3,3.4,3.6v6.9c0,0,0,.1,0,.1h-1.5c0,0-.1,0-.1-.1Z"/>
  <path class="st0" d="M314,203v-6.4c0,0,0-.1,0-.1h1.5c0,0,.1,0,.1.1v4.3s0,2,0,2c0,1.8.8,2.9,2.1,2.9s2.3-1.2,2.8-3.2v-6c0,0,0-.1,0-.1h1.5c0,0,.1,0,.1.1v4.6s0,5.5,0,5.5c0,0,0,.1-.1.1h-1.4c0,0-.1,0-.1-.1v-1.8c-.7,1.3-1.9,2.1-3.3,2.1-2.1,0-3.3-1.5-3.3-4.1Z"/>
  <path class="st0" d="M324.4,206.7v-4.3s0-1.9,0-1.9c0-2.7,1.5-4.2,4.3-4.2s4.3,1.5,4.3,4.2v6.2c0,0,0,.1,0,.1h-1.5c0,0-.1,0-.1-.1v-4.3s0-1.9,0-1.9c0-2-.9-3-2.6-3s-2.6,1-2.6,3v2.3c.6-1.2,1.5-1.8,2.7-1.8s.4,0,.7,0c0,0,.1,0,.1.1v1.1c0,0,0,.1-.1.1-.2,0-.4,0-.6,0-1.5,0-2.6,1-2.7,2.7v1.7c0,0,0,.1-.1.1h-1.5c0,0-.1,0-.1-.1Z"/>
  <path class="st0" d="M334.8,203.5c0,0,0-.1.1-.1h1.4c0,0,.1,0,.1.1,0,1.5,1,2.3,2.5,2.3s2.3-.7,2.3-1.8c0-2.9-6.2-.9-6.2-4.8s1.5-3,3.7-3,3.8,1.1,3.9,3.1c0,0,0,.1-.1.1h-1.4c0,0-.1,0-.1-.1-.1-1.2-.9-1.9-2.3-1.9s-2.1.6-2.1,1.6c0,2.7,6.3.6,6.3,4.8s-1.5,3.2-3.9,3.2-4.1-1.3-4.2-3.6Z"/>
  <path class="st0" d="M354.4,198.9c0-1.2-.7-2.2-2.1-2.2-1.4,0-2.2,1-2.2,2.8,0,0,0,0,0,0h-1.2c0,0,0,0,0,0,0-2.5,1.3-3.8,3.6-3.9,2.2,0,3.5,1.2,3.5,3.2,0,4-5.7,3.4-5.7,6.4v.5h5.5c0,0,0,0,0,0v.9c0,0,0,0,0,0h-6.8c0,0,0,0,0,0v-1.3c0-4.3,5.7-3.7,5.7-6.6Z"/>
  <path class="st0" d="M357.2,203.9c0,0,0,0,0,0h1.3s0,0,0,0c0,1.3.8,2.1,2.1,2.1s2.3-1.2,2.3-3.1-.8-2.9-2.2-2.9-1.9.6-2.1,1.7c0,0,0,0,0,0h-1.1c0,0,0,0,0,0l.4-5.8s0,0,0,0h5.9s0,0,0,0v.9c0,0,0,0,0,0h-4.8l-.2,3.1c.6-.7,1.3-1,2.4-1,2,0,3.4,1.5,3.4,3.9s-1.6,4.2-3.9,4.2-3.4-1.2-3.6-3.2Z"/>
  <path class="st0" d="M366.2,201.4c0-3.7,1.6-5.8,4.1-5.8s3,1,3.2,2.8c0,0,0,0,0,0h-1.3s0,0-.1,0c0-1-.7-1.7-1.8-1.7s-2.5,1.6-2.5,4.2c.5-.9,1.5-1.4,2.7-1.4,2.1,0,3.4,1.4,3.4,3.6s-1.6,4-3.7,4-3.9-1.8-3.9-5.7ZM370.1,206c1.4,0,2.3-1.1,2.3-2.8,0-1.6-.8-2.6-2.2-2.6s-2.3,1-2.3,2.6.8,2.8,2.2,2.8Z"/>
  <path class="st0" d="M375.3,203.8c0-1.3.8-2.4,2.2-2.8-1.2-.4-1.8-1.4-1.8-2.5,0-1.8,1.4-2.9,3.5-2.9s3.5,1.1,3.5,2.9c0,1-.6,2.1-1.9,2.5,1.4.4,2.2,1.5,2.2,2.8,0,2-1.7,3.3-3.9,3.3s-3.9-1.3-3.9-3.3ZM379.2,206c1.5,0,2.4-.9,2.4-2.2,0-1.3-.9-2.2-2.4-2.3-1.5,0-2.4.9-2.4,2.3,0,1.3.9,2.2,2.4,2.2ZM379.2,200.5c1.3,0,2-.9,2-1.9s-.8-2-2-2-2,.8-2,2c0,1.1.8,1.9,2,1.9Z"/>
</svg>