<?xml version="1.0" encoding="UTF-8"?>
<svg id="Layer_1" xmlns="http://www.w3.org/2000/svg" version="1.1" viewBox="0 0 500 250">
  <!-- Generator: Adobe Illustrator 29.7.1, SVG Export Plug-In . SVG Version: 2.1.1 Build 8)  -->
  <defs>
    <style>
      .st0 {
        fill: #fff;
      }
    </style>
  </defs>
  <g>
    <path class="st0" d="M109.1,192.4c-1.8-.9-5.5-.7-5.1,1.1.5,1.5,2.8,2.5,5,2.5,3.6-.1,2.5-2.8,0-3.6Z"/>
    <g>
      <path class="st0" d="M88.6,93.6c.8.8,1.7,1.5,2.1,2.6.3,1,1.5.3,2.2.4.5,0,1.1,0,1.6,0-.5-3.5-1-7-2.1-10.3,0-.2-.1-.5-.2-.6,0,0-.1,0-.2.1-2.8,2-6.5,2.4-9.9,2.2h0c.1.9,0,1.9-.3,2.7,2.7-.4,4.7,1.3,6.7,2.9Z"/>
      <path class="st0" d="M87.4,73c0,.6.4,1.1.8,1.6.2.2.5.5.6.1,1.4-2.7,2-4.7,1.5-7.3,0,0,.1,0,.2-.1-.9.5-1.8,1-2.7,1.5.1,0,.3-.2.4-.2.4,1.5-.5,3-.9,4.5Z"/>
      <path class="st0" d="M105.3,120.9c.7-.4,1.4-.7,2-1-2.2-2.5-1-5.4,1.2-7.5,0,0-.2-.1-.3-.2-.4-.2-.7-.4-1-.7-1.1-.2-5.4.1-5.5-1.1h0s-.2,0-.2.1c.6,3.9,1,7.8,1.5,11.7.8-.4,1.2-.8,2.4-1.3Z"/>
      <path class="st0" d="M65.8,90.1s0,0,0,0c0,0,.1-.2.2-.3,0,0-.1.2-.2.3Z"/>
      <path class="st0" d="M123.4,59.9c-10.9-.4-21.2,1.8-30.4,6.2,0,0,0,0,0,0,.3.5.5,1.1.7,1.7,2.2,6.3,3.8,12.7,5.1,19.2.8,0,1.7,0,2.5-.3.8-.4,1-1.3,1.9-1.5,1.7-.5,3,.5,4.6,1.3.4.2.7.5.9.5,0,0,0,0,0,0,0-.8-.8-2.3-.4-3.2.5-.8,1.5-.8,2.5-.5.8.2,2.6.7,2.1.2-.7-.5-1.4-1.2-2.1-1.8-2.7-2.6-5.3-4.7-8.6-6.7-.3-.2-.4-.4-.3-.8,0-.2.3-.4.3-.5,0-.1-.1-.4,0-.5,0-.3.2-.8.6-1.1.2-.2.6-.3.7-.6,1.4-4.1,6.9-4.5,10.5-3.2,4.1,1.4,5.9,4.5,8.5,8.3.9,1.4,1.5,3.1,1.4,4.7,0,.9-.3,1.7-1,2.3,0,0-.2.2-.2.3,0,.6-.2,1.2-.3,1.7.3.8,1.2.6,1.9.4.9-.6,2.8-3.5,3.3-5.3.7-1.9.8-4.2.5-6.2,1.6-.4,6.7-1.2,10.3,3,2.1,1.9,3.6,2.8,2.9,5.7-.2,1.6-1,3.3-2.1,4.4-.7.6-1.8,1.1-2.6,1.5-1.2.9-2.8.9-4.2,1.4-1.4.6-3.1,1.1-4.6,1.5,1.7.2,3.6.7,5.4,0,2-.6,4.2-1.7,6.1-2.2.8-.2,1.5-.3,2.1-.2,9.3,1.3,2.4,7.2-3.6,9.2-1.6.5-3.2.9-4.8.6-4-.8-6.8-1.4-9.4-2.7-.1,0-.3-.2-.4,0-.1,3.9-2.4,6.8-6.6,6.6-1.9,0-2.2-1.3-2.1-2.6.1-1.9.5-3.6,0-5.5,0-.1,0-.1-.2-.1-.7.1-1.5.1-2.3,0-2.3,0-4.7,0-6.9-.1-1.8.8-3.8.6-5.5.1-.3,0-.1.3-.1.5.2,1.2.2,2.4.5,3.6,1.7.3,4.2.2,5.2,1.7.4.7,0,1.5-.6,1.9-.1.1-.3.2-.2.2,1.8-.1,5.9,1,5.2,3.3-.2.4-.5.7-1,1,0,0-.1,0,0,0,.8-.2,1.7-.4,2.6-.6,2.5-.5,5.2-.8,7.7-.8,1.5,0,2.9.3,4.4.2,2.6-.2,12.7-.8,10.4,3.8,3.2-.5,9-.1,10,2.4.4,2.3-4.3,3.4-6.1,3.7-5.2.8-10.2.1-15.2,0-.5,0-1,0-1.5.1-.1,0-.3.2-.4.4-.2.3-.3.5-.4.8,0,0,0,.2,0,.3.2,0,.7-.1,1-.2,2.2-.5,4.9-.8,6.9.2.9.5.9,1.3.3,2.2-1,1.3-2.8,1.9-4.3,2.5-.1,0-.2,0-.3.1,0,.5.1,1,0,1.6,0,.6-.3,1.2-.3,1.7h.1c2.1-.7,4.4-1.2,6.6-1,2.2.2,4.5,1,3.4,2.8-.9,1.2-2.5,1.7-3.9,2.2-1.9.7-3.9,1.1-5.8,1.7-.9.2-2,.6-3,.6-1.1,0-2.1-.5-3.1-.6-.2,0-.6.7-.7.8,1.4-.1,3.3-.2,4.2,1.2.2.2.3.5.5.7.2.1.4.3.5.5.2.3,0,.5,0,.8.8,3.2-1.3,5.8-4.7,5.7-1.6,0-3.3-.5-3.4-2.2,0-.7.3-1.4.6-2,0-.2,0-.5,0-.7.1-.6,0-1.2,0-1.8,0-.1,0-.3,0-.4,0,0,0,0-.1,0-1.7.8-4,.8-5.8.2-1.7,1-3.7,2-5.6,2.6-.2,0-.2,0-.3.2-.3.3-.9.9-1.2,1.2-.2.2-.4.3-.4.6,0,.3-.3.4-.2.7.5.6.1,1-.2,1.6,0,.3-.2.6-.5.8-.1,0-.3.2-.4.3-1.3,1.6-3.2,2.9-4.8,4.3,0,.2.5.1.7.2.6.2,1.3.6,1.5,1.2,0,1.3-1.6,2.1-2.6,2.8-1.7,1.6-4.3,3-7,2.9-6.4,1-13.8-2.5-3.7-6,.4-1.4,1.8-2.8,2.9-3.7.1-.1.4-.2.1-.2-3.1.3-7.2-.3-8.5-3.6-.3-2.8,1.5-6,4.3-8.8,1.3-1.2,2.7-2.6,4.3-3.2,1-.4,2.1-.4,3.1,0,0,0,.1,0,.2,0,1.5-.9,3.3-1.3,5-1.4.8-.3,1.7-.8,2.5-1.2,0,0,0-.1,0-.2-.1-.9-.2-1.8-.2-2.8-.5-5-1.3-9.9-2.2-14.8-.9-.8-1.3-1.9-1-3,0-.2.2-.4,0-.4-1.1.4-3,.6-3.9,0,0,0-.1,0-.2,0-.2.2-.5.5-.8.8-1.4,1.4-3,2.4-4.8,3.3-.7.4-1.4.7-2.1,1.1,0,0,0,.3,0,.4,0,.1,0,.3,0,.4,1.3.5,2.1,1.4,2.3,2.6,0,0,0,.1.1.1,2.9-.2,6.8.5,7.9,2.8.6,1,.3,2.1,0,3.1-.6,1.8-2.5,3.2-4.2,4.4-2.8,1.7-6.4,1.2-9.1-.3-2.2.4-5.8,0-5.9-2.8,0,0,0-.1-.1-.2-1.8-.6-2.7-1.6-2.8-3.4-2.2-.9-2.5-3-1.7-5,0-.1.1-.3.1-.4-.1,0-.2,0-.3,0-3.3-.3-4.8-1.5-4.7-4.2,0-.8.4-1.7.7-2.6.4-2.2,1.6-5.1,3.7-6.7.1-.1.4-.2.4-.4-.5-.1-1.2-.4-1.6-.7h0c-2.2-1.7-1.6-4.8-.8-7.1,0,0,0,0,0,0-.4.2-.8.4-1.2.5-.1,0-.4.2-.3,0-5.8,9.2-9.4,20.1-9.8,31.7-1.5,35.7,26.3,65.9,62,67.4,1,0,2.1,0,3.1,0-.1,0-.2,0-.4,0-2-3.7-3.4-7.6-5.3-11.4-1.7-4.4-4.1-8.7-5.5-13.2-2.3-6.9-4.4-13.8-6.6-20.6-.2-.5-.4-1-.5-1.5,0-.7.7-1.3.7-2,0-.3,0-.7,0-1,.1-.1.5-.5.6-.6.4-.2,1-.4,1.4-.6.2,0,.3-.1.4,0,.5,1.5.9,3.1,1.4,4.6.2.5.3,1.1.5,1.5.1.1.3,0,.4-.1,1.8-.9,5.3-.5,6.1,1.1.9.3,1.9.9,1.6,1.7,0,0,0,0,0,.1.5.1,1,.3,1.4.6,1.1.4,2.1,1,3,1.8,7,4.5-7.2,7.9-9.2,2.5-.5-.6-1-1.2-1.4-1.8,0,0,0,0,0,0,0,0,0,0,0,.1,1.7,5.5,3.5,10.9,5.3,16.3.2.3,0,.5,0,.9-.9,2.6,1.1,3.9,2.7,5.6h0c2.4,5.3,4,10.6,6.5,15.9,0,0,0,.2,0,.2,32.9-1.8,59.6-28.4,61-62,1.5-35.7-26.3-65.9-62-67.4ZM105.4,167.5c.8,1.8,1.1,2.3,1,3.8-1.1,2.5-1.7,3.2-3.6,3.5-3,.5-4.7-1.7-5.3-3.3-.2-1.5-.4-1.7-.8-3.2-.5-.1-1-.3-1.6-.5-.6-.3-1.2-.7-1.4-1.2-.4,0-.8,0-1.1-.1-.3.2-.6.3-1,.5-.8.8-2.1,1.4-4.1,1.4-2.6,0-4.9-1.1-5.1-2.7-.1-1,.6-2,1.3-3,.3-.4.6-.8,1-1.2,0-.2-.1-.5-.2-.9,0-.2,0-.5.1-.7,1.5-2.1,6.9-1.2,7.7.5.6.2,1.2.4,1.6.6.2-.2.4-.3.7-.5,2.3-1.1,2.2-2.4,5.2-1.6,1,0,2.4,3.2,2.1,3.8,3.2,2.9,2.4,2.9,3.3,5ZM143.8,149.6c.6,1.4.4,2.7-.3,3.8,0,.4,0,.7-.1,1.1-1,2.5-6,3.7-9.6,3-6.1-.8-9.5-5.6-4.6-9,4.5-3.3,13.2-1.9,14.6,1.1ZM127.8,134.5c1.4-.3,3,.2,4.3.6,0,0,.2,0,.3,0,3.6.7,7.2,1.9,8.4,3.9.8,2.3-3.5,3.1-7,2.1-2.4-.6-4-1.7-5.2-2.9-.5-.3-.9-.7-1.2-1-.4-.4-.4-.8-.2-1-.4-.7-.4-1.4.7-1.7ZM138.6,181.3c-1.8,1.2-3.3,1.2-3.2,1.3.3.3,0,.6,0,.6-5.5-1-5.7-2.8-5.7-2.8v-.3c0-.2-.2-.5-.5-1,0,0,0,0,0,0-3.6-1.6-6.5-3.6-8.9-5.7,0,0-1-1-1.8-1.8-.7-.7-1.1-1.6-1.1-2.6,0-.6.2-1.3.7-1.8.1-.2.3-.4.4-.5,1.2-.8,2.6-1.1,4-1.1,2.8,0,5.7,1.2,6.5,2.6.1.2.3.4.3.6.3.3.4.7.5,1,.5,1.5-1.2,2.5-3.5,2.5s-.3,0-.4,0c-.1,0-.2,0-.3,0-.6,0-1.3,0-1.9-.2,1,.9,2,1.7,3.7,2.9.7.4,1.5.8,2.2,1.3.5.2,1,.5,1.4.7,2.2-1.8,7.1.1,7.1.4,0,.5-.4.4-.4.4,3,2,.8,3.3.8,3.3ZM149.7,171.4c-.3.4-.9.8-2.1,1-2.2.3-4.3-.3-5.5-1-.3-.2-.5-.5-.7-.7-1-.8-1.6-1.7-2-2.6-.5-1.3-1.6-2.7-.4-4.1,1.8-1.5,5.5-1.2,7.5-.4,1.3.5,2.1,1.2,2.6,2.1,1.8,2,2.5,4.6.5,5.8Z"/>
      <path class="st0" d="M92.6,66.2c-.7.4-1.4.7-2.1,1.1.8-.4,1.6-.8,2.4-1.2,0,0-.2,0-.3.1Z"/>
      <path class="st0" d="M87.9,68.7c-1,.5-2,1.2-3,1.8-6.6,4.4-12.3,9.9-16.9,16.3-.7,1-1.4,2-2,3,5.5-8.7,13-15.9,21.9-21.2Z"/>
      <path class="st0" d="M121.1,189.3c1,.1,2.1,0,3.1,0,0,0,.1,0,.1,0,0,0,0,0,0,0-1.1,0-2.2,0-3.3.1Z"/>
    </g>
    <path class="st0" d="M88.4,68.5c0-.6-.3-1.1-.6-1.6-.9-1.3-3.1-2.5-5-2.1,0,0-2.2.4-3.3.8,0,0-.2,0-.3.1-.4-.4-1-.7-1.7-.9-.6-.8-1.7-1.4-3.2-1.4s-.2,0-.4,0c0,0-.7.9-.7.9-.4-.9-1.2-1.7-2.2-2.2.1-1.9-.6-3.7-2.5-4.4-.6-.3-1.3-.4-2.1-.4-2.1,0-4.7.9-6.6,2.5-.4,0-.8,0-1.2.1-1.4-.4-2.9-.6-4.2-.6s-1.3,0-1.9.2c-1,.2-1.8,1.2-1.9,2.2-.2,1.3.4,3.3,1.3,5.2-.4.6-.8,1.1-1.5,1.9,0,0-.8.9-.8,1-2.3,2.3-1.9,4.3-.4,5.5.8.8,1.8,1.4,3,1.9-.3.7-.9,2.4-1,3.2-.5,2-.5,3.3.7,4.6.5.6,1.5.7,2.6.7s2.7-.2,3.9-.4c-1.5,3-1.5,5.4,2,6,.3,0,.6,0,.9,0,1.5,0,3-.3,4.4-.9,5.6-9,13.4-16.5,22.6-21.8ZM60.3,82.1c-1.6.9-3.1,1.1-3.9,0-.8-1.4-.5-3.4.5-5.6,2-.2,4.2-1.1,6.4-3,.4.9,1.1,1.7,2,2.2-1.5,1.7-3.4,4.1-5,6.4Z"/>
    <path class="st0" d="M91.2,62.6c-4.6-6.1-11-11-17.3-15.6-4.5-2.8-9.8-3.3-16.2-5.9-.8-.3-2.6-.4-4.7-.4s-5.6.1-8.2.1-4.2-.1-5-.5c-1.2-.4-1.9-1.4-3.4-1.4h-.1c-1.3,0-8.1.6-9.1,2-.9,1.1-.5,2,.3,2.3.8.6,6,2.8,7.1,3.1.6.2,2,.3,3.8.3,3.6,0,8.9-.3,12.5-.3s3.2,0,3.9.3c7.2,2.2,9.3,1.5,14.8,5.2,3.7,2.9,7.7,6.4,11.4,10.7,3.8-.3,7,.8,8.5,3,.3.5.7,1.1.9,1.8.9-.5,1.8-.9,2.7-1.4-.6-1.3-1.2-2.5-1.8-3.4Z"/>
    <path class="st0" d="M120.7,189.3c2,3.9,4,7.4,6.4,11.7-.3,1.9-1.8,4.8-3,5.9h0c-.8,0-1.5.2-1.9.4,0,0,0,0,0,0,0,0,0,0,0,0,0,0,0,0-.1,0,0,0-.1.1-.1.2-.4.3-.6.7-.8,1-.2.5-.6,1-.2,1.6.7.6,2.1.4,2.9.2.3-.1.5-.3.7-.4.7.2,1.6.4,2.4.4s1.4-.1,1.9-.5c.4-.5.3-.9,0-1.2,0,0,0,0,0,0,0,0,0,0,0,0-.2-.2-.3-.3-.6-.5.5-.6,1.3-1.7,1.6-2.1.3-.4.5-.9.6-1.3,1.7,1.6,3.5,3.1,5.7,5.4.4.5,1.8,1.1,3,1.1s1,0,1.4-.3c.5-.4,0-.9-.5-1.3-1.4-1.4-2.8-2.8-4.3-4.1-.5-.4-.8-.7-1.1-1,.5.3,1.1.6,1.7.9.9.3,2.1.5,3.3.5,1.7,0,3.3-.4,3.5-1.3,0,0,0,0,0,0,0,0,0,0,0,0,.3-.9-1.4-1.9-3.3-2.2-.9-.3-2.1-.5-3.1-.5s-2.5.3-2.9,1.1c0,.3,0,.7.3,1-.3-.3-.7-.7-1.3-1.2-.7-.6-1.1-1.4-2.1-1.9-.1,0-.2-.1-.4-.1-.1-.2-.3-.4-.4-.6-1.6-3.3-3.6-6.9-5.4-10.7-1.2,0-2.5.1-3.7.1Z"/>
  </g>
  <g>
    <g>
      <path class="st0" d="M212.5,95.2v-13.1c0,0,0-12.6,0-12.6,0-.1.1-.3.3-.3h10.6c5.3,0,9.1,2.1,9.1,6.4s-1.6,5-4.7,5.9c3.7.9,5.4,3.1,5.4,6.1,0,5.6-4.6,7.8-9.8,7.8h-10.8c-.1,0-.3-.1-.3-.3ZM223.5,80.1c2.8,0,4.5-1.2,4.5-3.7s-1.9-3.8-4.5-3.8h-6.3v7.6c0,0,6.3,0,6.3,0ZM217.2,92.2h6.3c3,0,5.2-1.1,5.2-4.6s-2.4-4.3-5.2-4.3h-6.4v8.9Z"/>
      <path class="st0" d="M234.1,95.2l9.1-25.7c0-.1.1-.2.3-.2h5.7c.1,0,.3.1.3.2l9,25.7c0,.1,0,.3-.2.3h-4.2c-.1,0-.3,0-.3-.2l-2.4-7.1h-10.3l-2.3,7.1c0,.1-.1.2-.3.2h-4.1c-.2,0-.3-.1-.2-.3ZM250.1,84.5l-4-12.1-3.9,12.1h7.9Z"/>
      <path class="st0" d="M260.4,95.2v-13c0,0,0-12.7,0-12.7,0-.1.1-.3.3-.3h4.9c.1,0,.3,0,.3.2l12.2,20-.2-6.7v-13.2c0-.1.1-.3.3-.3h3.8c.1,0,.3.1.3.3v12.7c0,0,0,13,0,13,0,.1-.1.3-.3.3h-5.2c-.1,0-.3,0-.3-.2l-12-19.8v7.2c.1,0,.2,12.5.2,12.5,0,.1-.1.3-.3.3h-3.8c-.1,0-.3-.1-.3-.3Z"/>
      <path class="st0" d="M285,82.4c0-8.3,5.2-13.6,12.4-13.6s10.2,3.1,11.5,8.7c0,.2,0,.3-.2.3h-4.2c-.1,0-.2,0-.3-.2-.9-3.4-3.2-5.2-6.8-5.2s-7.7,3.8-7.7,10.2,3,10.1,7.8,10.1,7-2.8,7.1-7.5h-7.3c-.1,0-.3-.1-.3-.3v-2.9c0-.1.1-.3.3-.3h11.9c.1,0,.3.1.3.3,0,9.3-4.1,14.1-12,14.1s-12.6-5.4-12.6-13.6Z"/>
      <path class="st0" d="M312.3,95.2v-13c.1,0,0-12.7,0-12.7,0-.1.1-.3.3-.3h4c.1,0,.3.1.3.3v11.5s8.7-11.7,8.7-11.7c0-.1.2-.1.3-.1h4.8c.2,0,.3.2.1.3l-8.5,10.2,10.4,15.4c.1.1,0,.3-.1.3h-5.1c-.1,0-.2,0-.3-.2l-7.8-11.9-2.5,3.1v8.7c0,.1,0,.3-.2.3h-4.1c-.1,0-.3-.1-.3-.3Z"/>
      <path class="st0" d="M331,82.4c0-8.4,5.1-13.7,12.9-13.7s12.9,5.2,12.9,13.7-5.1,13.6-12.9,13.6-12.9-5.5-12.9-13.6ZM343.9,92.4c5.2,0,8.2-3.8,8.2-10s-3-10.1-8.2-10.1-8.1,3.8-8.1,10.1,3,10,8.2,10Z"/>
      <path class="st0" d="M359.6,95.2v-13c.1,0,0-12.7,0-12.7,0-.1.1-.3.3-.3h4c.1,0,.3.1.3.3v11.5s8.7-11.7,8.7-11.7c0-.1.2-.1.3-.1h4.8c.2,0,.3.2.1.3l-8.5,10.2,10.4,15.4c.1.1,0,.3-.1.3h-5.1c-.1,0-.2,0-.3-.2l-7.8-11.9-2.5,3.1v8.7c0,.1,0,.3-.2.3h-4.1c-.1,0-.3-.1-.3-.3Z"/>
      <path class="st0" d="M212.8,132v-13.2c.1,0,0-12.6,0-12.6,0-.1,0-.2.2-.2h3.1c.1,0,.2,0,.2.2v12.6c0,0,0,13.2,0,13.2,0,.1,0,.2-.2.2h-3.1c-.1,0-.2,0-.2-.2Z"/>
      <path class="st0" d="M220.4,132v-13.1c0,0,0-12.7,0-12.7,0-.1,0-.2.2-.2h3.7c.1,0,.2,0,.3.1l13.8,21.4v-8.3c-.1,0-.1-13-.1-13,0-.1,0-.2.2-.2h2.9c.1,0,.2,0,.2.2v12.7c0,0,0,13.1,0,13.1,0,.1,0,.2-.2.2h-3.9c-.1,0-.2,0-.3-.1l-13.6-21.1v8.2c.1,0,.1,12.8.1,12.8,0,.1,0,.2-.2.2h-2.9c-.1,0-.2,0-.2-.2Z"/>
      <path class="st0" d="M252.1,132v-12.8c.1,0,0-10.6,0-10.6h-7.4c-.1,0-.2,0-.2-.2v-2.2c0-.1,0-.2.2-.2h18.4c.1,0,.2,0,.2.2v2.2c0,.1,0,.2-.2.2h-7.4v10.6c0,0,0,12.8,0,12.8,0,.1,0,.2-.2.2h-3.2c-.1,0-.2,0-.2-.2Z"/>
      <path class="st0" d="M266.3,132v-13.3c0,0,0-12.4,0-12.4,0-.1,0-.2.2-.2h16c.1,0,.2,0,.2.2v2.2c0,.1,0,.2-.2.2h-12.7v8.2c0,0,11.8,0,11.8,0,.1,0,.2,0,.2.2v2.2c0,.1,0,.2-.2.2h-11.9v10h13.1c.1,0,.2,0,.2.2v2.2c0,.1,0,.2-.2.2h-16.3c-.1,0-.2,0-.2-.2Z"/>
      <path class="st0" d="M286.2,132v-13.3c0,0,0-12.5,0-12.5,0-.1,0-.2.2-.2h9.3c6,0,9.6,2.6,9.6,7.7s-2.5,6.7-6.4,7.5l6.9,10.8c0,.1,0,.3-.1.3h-3.6c-.1,0-.2,0-.3-.1l-2.6-4.2-4.1-6.4h-5.5v10.6c0,.1,0,.2-.1.2h-3.1c-.1,0-.2,0-.2-.2ZM296.1,118.8c3.5,0,5.8-1.5,5.8-5.1s-2.2-5.1-5.9-5.1h-6.3v10.2c0,0,6.3,0,6.3,0Z"/>
      <path class="st0" d="M308.8,132v-13.1c0,0,0-12.7,0-12.7,0-.1,0-.2.2-.2h3.7c.1,0,.2,0,.3.1l13.8,21.4v-8.3c-.1,0-.1-13-.1-13,0-.1,0-.2.2-.2h2.9c.1,0,.2,0,.2.2v12.7c0,0,0,13.1,0,13.1,0,.1,0,.2-.2.2h-3.9c-.1,0-.2,0-.3-.1l-13.6-21.1v8.2c.1,0,.1,12.8.1,12.8,0,.1,0,.2-.2.2h-2.9c-.1,0-.2,0-.2-.2Z"/>
      <path class="st0" d="M332.4,131.9l9.3-25.8c0-.1.1-.2.3-.2h4.2c.1,0,.2,0,.3.2l9.2,25.8c0,.1,0,.3-.2.3h-3.2c-.1,0-.2,0-.3-.2l-2.7-7.8h-10.7l-2.6,7.8c0,.1-.1.2-.3.2h-3.1c-.1,0-.2-.1-.2-.3ZM348.4,121.4l-4.5-13-4.4,13h8.8Z"/>
      <path class="st0" d="M359.9,132v-12.8c.1,0,0-10.6,0-10.6h-7.4c-.1,0-.2,0-.2-.2v-2.2c0-.1,0-.2.2-.2h18.4c.1,0,.2,0,.2.2v2.2c0,.1,0,.2-.2.2h-7.4v10.6c0,0,0,12.8,0,12.8,0,.1,0,.2-.2.2h-3.2c-.1,0-.2,0-.2-.2Z"/>
      <path class="st0" d="M374.3,132v-13.2c.1,0,0-12.6,0-12.6,0-.1,0-.2.2-.2h3.1c.1,0,.2,0,.2.2v12.6c0,0,0,13.2,0,13.2,0,.1,0,.2-.2.2h-3.1c-.1,0-.2,0-.2-.2Z"/>
      <path class="st0" d="M381.3,119.1c0-8.4,4.9-13.6,12.6-13.6s12.5,5.2,12.5,13.6-5,13.6-12.6,13.6-12.5-5.4-12.5-13.6ZM393.8,130c5.5,0,8.9-4.1,8.9-10.8s-3.4-10.9-9-10.9-8.9,4.1-8.9,10.9,3.4,10.8,9,10.8Z"/>
      <path class="st0" d="M409.6,132v-13.1c0,0,0-12.7,0-12.7,0-.1,0-.2.2-.2h3.7c.1,0,.2,0,.3.1l13.8,21.4v-8.3c-.1,0-.1-13-.1-13,0-.1,0-.2.2-.2h2.9c.1,0,.2,0,.2.2v12.7c0,0,0,13.1,0,13.1,0,.1,0,.2-.2.2h-3.9c-.1,0-.2,0-.3-.1l-13.6-21.1v8.2c.1,0,.1,12.8.1,12.8,0,.1,0,.2-.2.2h-2.9c-.1,0-.2,0-.2-.2Z"/>
      <path class="st0" d="M433.2,131.9l9.3-25.8c0-.1.1-.2.3-.2h4.2c.1,0,.2,0,.3.2l9.2,25.8c0,.1,0,.3-.2.3h-3.2c-.1,0-.2,0-.3-.2l-2.7-7.8h-10.7l-2.6,7.8c0,.1-.1.2-.3.2h-3.1c-.1,0-.2-.1-.2-.3ZM449.2,121.4l-4.5-13-4.4,13h8.8Z"/>
      <path class="st0" d="M458.9,132v-13.6c.1,0,0-12.2,0-12.2,0-.1,0-.2.2-.2h3.1c.1,0,.2,0,.2.2v12.1c0,0,0,11.3,0,11.3h11.7c.1,0,.2,0,.2.2v2.2c0,.1,0,.2-.2.2h-15.1c-.1,0-.2,0-.2-.2Z"/>
      <path class="st0" d="M212.6,168.7v-12.9c0,0,0-12.9,0-12.9,0-.1,0-.2.2-.2h15.6c.1,0,.2,0,.2.2v2.2c0,.1,0,.2-.2.2h-12.3v9.4c0,0,11.7,0,11.7,0,.1,0,.2,0,.2.2v2.2c0,.1,0,.2-.2.2h-11.7v11.3c0,.1,0,.2-.1.2h-3.1c-.1,0-.2,0-.2-.2Z"/>
      <path class="st0" d="M230.6,168.7v-13.2c.1,0,0-12.6,0-12.6,0-.1,0-.2.2-.2h3.1c.1,0,.2,0,.2.2v12.6c0,0,0,13.2,0,13.2,0,.1,0,.2-.2.2h-3.1c-.1,0-.2,0-.2-.2Z"/>
      <path class="st0" d="M237.1,168.7v-13.6c.1,0,0-12.2,0-12.2,0-.1,0-.2.2-.2h3.1c.1,0,.2,0,.2.2v12.1c0,0,0,11.3,0,11.3h11.7c.1,0,.2,0,.2.2v2.2c0,.1,0,.2-.2.2h-15.1c-.1,0-.2,0-.2-.2Z"/>
      <path class="st0" d="M254.4,168.7v-12.6c0,0,0-13.2,0-13.2,0-.1,0-.2.2-.2h4.3c.1,0,.2,0,.3.2l8.4,21.6,8.1-21.6c0-.1.1-.2.3-.2h4.1c.1,0,.2,0,.2.2v13.2c0,0,0,12.6,0,12.6,0,.1,0,.2-.2.2h-3.1c-.1,0-.2,0-.2-.2v-12.1s.1-9.3.1-9.3l-8.1,21.4c0,.1-.1.2-.3.2h-2.4c-.1,0-.2,0-.3-.2l-8.4-21.6v9.5c.1,0,.1,12.1.1,12.1,0,.1,0,.2-.2.2h-2.8c-.1,0-.2,0-.2-.2Z"/>
      <path class="st0" d="M295.9,168.7v-12.9c0,0,0-12.9,0-12.9,0-.1,0-.2.2-.2h15.6c.1,0,.2,0,.2.2v2.2c0,.1,0,.2-.2.2h-12.3v9.4c0,0,11.7,0,11.7,0,.1,0,.2,0,.2.2v2.2c0,.1,0,.2-.2.2h-11.7v11.3c0,.1,0,.2-.1.2h-3.1c-.1,0-.2,0-.2-.2Z"/>
      <path class="st0" d="M313.7,168.7v-13.3c0,0,0-12.4,0-12.4,0-.1,0-.2.2-.2h16c.1,0,.2,0,.2.2v2.2c0,.1,0,.2-.2.2h-12.7v8.2c0,0,11.8,0,11.8,0,.1,0,.2,0,.2.2v2.2c0,.1,0,.2-.2.2h-11.9v10h13.1c.1,0,.2,0,.2.2v2.2c0,.1,0,.2-.2.2h-16.3c-.1,0-.2,0-.2-.2Z"/>
      <path class="st0" d="M331.4,160.1c0-.1,0-.2.2-.2h3.2c.1,0,.2,0,.2.2.3,4,2.2,6.6,7.4,6.6s6.6-1.4,6.6-5c0-7.3-17.1-2-17.1-12s3.8-7.4,9.7-7.4,9.7,2.6,10.2,8c0,.1,0,.2-.2.2h-3.2c-.1,0-.2,0-.2-.2-.3-3.5-2.5-5.3-6.7-5.3s-6.1,1.4-6.1,4.4c0,6.9,17.1,1.7,17.1,11.9s-4.1,8.1-10.1,8.1-10.7-3.3-10.9-9.3Z"/>
      <path class="st0" d="M359.8,168.7v-12.8c.1,0,0-10.6,0-10.6h-7.4c-.1,0-.2,0-.2-.2v-2.2c0-.1,0-.2.2-.2h18.4c.1,0,.2,0,.2.2v2.2c0,.1,0,.2-.2.2h-7.4v10.6c0,0,0,12.8,0,12.8,0,.1,0,.2-.2.2h-3.2c-.1,0-.2,0-.2-.2Z"/>
      <path class="st0" d="M373,168.7v-13.2c.1,0,0-12.6,0-12.6,0-.1,0-.2.2-.2h3.1c.1,0,.2,0,.2.2v12.6c0,0,0,13.2,0,13.2,0,.1,0,.2-.2.2h-3.1c-.1,0-.2,0-.2-.2Z"/>
      <path class="st0" d="M378.3,142.7h3.4c.1,0,.2,0,.3.2l7.6,22.9,7.6-22.9c0-.1.1-.2.3-.2h3c.1,0,.2.1.2.3l-8.9,25.8c0,.1-.1.2-.3.2h-4.1c-.1,0-.2,0-.3-.2l-9-25.8c0-.1,0-.3.2-.3Z"/>
      <path class="st0" d="M396.5,168.7l9.3-25.8c0-.1.1-.2.3-.2h4.2c.1,0,.2,0,.3.2l9.2,25.8c0,.1,0,.3-.2.3h-3.2c-.1,0-.2,0-.3-.2l-2.7-7.8h-10.7l-2.6,7.8c0,.1-.1.2-.3.2h-3.1c-.1,0-.2-.1-.2-.3ZM412.4,158.2l-4.5-13-4.4,13h8.8Z"/>
      <path class="st0" d="M421,168.7v-13.6c.1,0,0-12.2,0-12.2,0-.1,0-.2.2-.2h3.1c.1,0,.2,0,.2.2v12.1c0,0,0,11.3,0,11.3h11.7c.1,0,.2,0,.2.2v2.2c0,.1,0,.2-.2.2h-15.1c-.1,0-.2,0-.2-.2Z"/>
    </g>
    <g>
      <path class="st0" d="M212.3,190.4v-8c0,0,0-.1,0-.1h1.5c0,0,.1,0,.1.1v4.9s0,2.9,0,2.9c0,.7.2,1.1.7,1.1s.2,0,.3,0c0,0,.1,0,.1,0v.9c0,0,0,.1-.1.1-.2,0-.5,0-.7,0-1.3,0-1.9-.7-1.9-2.1Z"/>
      <path class="st0" d="M216.8,192.3v-4.4s0-5.4,0-5.4c0,0,0-.1.1-.1h1.4c0,0,.1,0,.1.1v1.7c.7-1.3,1.9-2,3.2-2,2.1,0,3.2,1.4,3.2,4v6.2c0,0,0,.1,0,.1h-1.5c0,0-.1,0-.1-.1v-4.2s0-1.9,0-1.9c0-1.8-.7-2.8-2.1-2.8s-2.3,1.1-2.7,3.1v5.8c0,0,0,.1,0,.1h-1.4c0,0-.1,0-.1-.1Z"/>
      <path class="st0" d="M226.9,192.3v-4.2s0-1.8,0-1.8c0-2.6,1.5-4.1,4.1-4.1s.8,0,1.1.1h3.4c0,0,.1,0,.1.1v1c0,0,0,.1-.1.1h-1.5c.8.5,1.3,1.6,1.3,2.8v6c0,0,0,.1,0,.1h-1.5c0,0-.1,0-.1-.1v-4.2s0-1.8,0-1.8c0-1.9-.9-2.9-2.6-2.9s-2.5,1-2.5,2.9v2.3c.5-1.1,1.5-1.8,2.6-1.8s.4,0,.6,0c0,0,.1,0,.1.1v1.1c0,0,0,.1-.1.1-.2,0-.3,0-.6,0-1.5,0-2.5,1-2.6,2.6v1.6c0,0,0,.1-.1.1h-1.4c0,0-.1,0-.1-.1Z"/>
      <path class="st0" d="M237.4,192.3v-3.5c0-1,.5-1.7,1.3-2h-1.6c0,0-.1,0-.1-.1v-.8c0-2.4,1.5-3.8,4.3-3.8s4.2,1.3,4.2,3.7v6.5c0,0,0,.1,0,.1h-1.5c0,0-.1,0-.1-.1v-4s0-2.4,0-2.4c0-1.6-.9-2.5-2.7-2.5s-2.7.8-2.7,2.5h2.1c0,0,.1,0,.1.1v.9c0,0,0,.1-.1.1-1.2.2-1.6.7-1.6,1.9v3.5c0,0,0,.1,0,.1h-1.4c0,0-.1,0-.1-.1Z"/>
      <path class="st0" d="M252.3,192.3v-3.9s0-2.8,0-2.8c0-1.5-.6-2.3-1.7-2.3s-1.7.8-1.8,2.3c0,0,0,.1-.1.1h-1.4c0,0-.1,0-.1-.1,0-2.3,1.3-3.5,3.4-3.5s3.3,1.2,3.3,3.5v6.7c0,0,0,.1,0,.1h-1.5c0,0-.1,0-.1-.1Z"/>
      <path class="st0" d="M255.8,189.8c0-1.7,1.1-2.6,3.6-3,2.5-.4,3.2-.8,3.2-1.7s-.8-1.8-2.3-1.8-2.4.7-2.5,2c0,0,0,0,0,.1s0,0,0,0h-1.4c0,0-.1,0-.1-.1,0-2,1.6-3.2,4.1-3.2s3.9,1.2,3.9,3.4v6.8c0,0,0,.1,0,.1h-1.4c0,0-.1,0-.1-.1v-4.2s0-1.1,0-1.1c-.4.4-1,.5-2.9.8-1.5.3-2.2.9-2.2,1.9s.8,1.7,2.1,1.7.7,0,1.1-.1c0,0,.1,0,.1,0v.9s0,0,0,0c0,0,0,0-.1,0-.4.1-.9.2-1.5.2-2.2,0-3.4-1-3.4-2.8Z"/>
      <path class="st0" d="M266,192.5c0,0-.1,0-.1-.1v-.9c0,0,0-.1.1,0,.2,0,.4,0,.5,0,.6,0,.8-.4.8-1.2v-1.4c0-.9.4-1.6,1.2-1.9h-1.7c0,0-.1,0-.1-.1v-.8c0-2.4,1.6-3.8,4.4-3.8s4.2,1.3,4.2,3.7v6.5c0,0,0,.1,0,.1h-1.5c0,0-.1,0-.1-.1v-4s0-2.4,0-2.4c0-1.6-.9-2.5-2.7-2.5s-2.7.8-2.7,2.5h2.2c0,0,.1,0,.1.1v.9c0,0,0,.1-.1.1-1.1.2-1.5.6-1.5,1.8v1.5c0,1.6-.7,2.3-2.1,2.3s-.6,0-.9,0Z"/>
      <path class="st0" d="M282,192.3v-3.9s0-2.8,0-2.8c0-1.5-.6-2.3-1.7-2.3s-1.7.8-1.8,2.3c0,0,0,.1-.1.1h-1.4c0,0-.1,0-.1-.1,0-2.3,1.3-3.5,3.4-3.5s3.3,1.2,3.3,3.5v6.7c0,0,0,.1,0,.1h-1.5c0,0-.1,0-.1-.1Z"/>
      <path class="st0" d="M287,192.3l-2.1-9.7s0,0,0-.1c0,0,0,0,0,0h1.5s0,0,0,.1l1.6,8,1.8-8c0,0,0,0,.1,0h1.2c0,0,0,0,.1,0l1.9,8,1.6-7.9c0,0,0-.1.1-.1h1.5c0,0,.1,0,0,.1l-2.1,9.8c0,0,0,.1-.1.1h-1.7c0,0,0,0-.1-.1l-1.8-7.4-1.8,7.4c0,0,0,.1-.1.1h-1.7c0,0,0,0-.1-.1Z"/>
      <path class="st0" d="M298.2,189.5c0-1.2.7-2.1,1.8-2.5-1.2-.4-1.8-1.3-1.8-2.4s1-2.4,2.8-2.4,1.1,0,1.6.3c0,0,0,0,0,.1v.9c0,0,0,.1-.1,0-.4-.1-.8-.2-1.2-.2-1,0-1.5.5-1.5,1.5s.6,1.6,1.8,1.6h1.1c0,0,.1,0,.1.1v.9c0,0,0,.1-.1.1h-1c-1.2,0-1.9.6-1.9,1.7s.9,2.1,2.3,2.1,2.6-1,2.6-2.8v-6.2c0,0,0-.1,0-.1h1.5c0,0,.1,0,.1.1v4.2s0,2,0,2c0,2.5-1.5,3.9-4.2,3.9s-4-1.2-4-3.1Z"/>
      <path class="st0" d="M308.4,188.7v-6.2c0,0,0-.1,0-.1h1.4c0,0,.1,0,.1.1v4.2s0,1.9,0,1.9c0,1.8.7,2.8,2.1,2.8s2.2-1.1,2.7-3.1v-5.8c0,0,0-.1,0-.1h1.5c0,0,.1,0,.1.1v4.5s0,5.4,0,5.4c0,0,0,.1-.1.1h-1.4c0,0-.1,0-.1-.1v-1.7c-.7,1.3-1.9,2.1-3.2,2.1-2.1,0-3.2-1.4-3.2-4Z"/>
      <path class="st0" d="M318.2,187.4c0-3.4,1-5.2,2.8-5.2s1.6.5,1.9,1.4c.3-1,1-1.4,1.9-1.4,1.5,0,2.3,1.1,2.3,3.2v6.9c0,0,0,.1,0,.1h-1.4c0,0-.1,0-.1-.1v-4.2s0-2.9,0-2.9c0-1.2-.3-1.8-1-1.8s-1,.5-1.1,1.8c0,0,0,0,0,0h-.7s0,0,0,0c0,0,0,0,0-.1-.1-1.1-.5-1.7-1.1-1.7-1,0-1.5,1.4-1.5,4s.9,4,2.6,4,.7,0,1-.1c0,0,.1,0,.1,0v.9s0,0,0,0c0,0,0,0-.1,0-.5.1-.9.2-1.4.2-2.5,0-3.9-1.8-3.9-5.2Z"/>
      <path class="st0" d="M329,189.2c0,0,0-.1.1-.1h1.4c0,0,.1,0,.1.1,0,1.5,1,2.3,2.5,2.3s2.2-.7,2.2-1.7c0-2.8-6-.8-6-4.7s1.4-2.9,3.6-2.9,3.7,1.1,3.8,3c0,0,0,.1-.1.1h-1.3c0,0-.1,0-.1-.1-.1-1.1-.9-1.8-2.2-1.8s-2,.6-2,1.6c0,2.6,6.1.6,6.1,4.7s-1.5,3.1-3.8,3.1-4-1.3-4-3.4Z"/>
      <path class="st0" d="M333.7,181.5v-.6c0-1.1.7-1.7,2-1.7h1.6c0,0,.1,0,.1.1v.9c0,0,0,.1-.1.1h-1.2c-.5,0-.9.3-.9.7v.4c0,0,0,.1-.1.1h-1.3c0,0-.1,0-.1-.1Z"/>
      <path class="st0" d="M338.6,188.7v-6.2c0,0,0-.1,0-.1h1.4c0,0,.1,0,.1.1v4.2s0,1.9,0,1.9c0,1.8.7,2.8,2.1,2.8s2.2-1.1,2.7-3.1v-5.8c0,0,0-.1,0-.1h1.5c0,0,.1,0,.1.1v4.5s0,5.4,0,5.4c0,0,0,.1-.1.1h-1.4c0,0-.1,0-.1-.1v-1.7c-.7,1.3-1.9,2.1-3.2,2.1-2.1,0-3.2-1.4-3.2-4Z"/>
      <path class="st0" d="M353.4,192.3v-3.9s0-2.8,0-2.8c0-1.5-.6-2.3-1.7-2.3s-1.7.8-1.8,2.3c0,0,0,.1-.1.1h-1.4c0,0-.1,0-.1-.1,0-2.3,1.3-3.5,3.4-3.5s3.3,1.2,3.3,3.5v6.7c0,0,0,.1,0,.1h-1.5c0,0-.1,0-.1-.1Z"/>
      <path class="st0" d="M357.1,188.7v-6.2c0,0,0-.1,0-.1h1.4c0,0,.1,0,.1.1v4.2s0,1.9,0,1.9c0,1.8.7,2.8,2.1,2.8s2.2-1.1,2.7-3.1v-5.8c0,0,0-.1,0-.1h1.5c0,0,.1,0,.1.1v4.5s0,5.4,0,5.4c0,0,0,.1-.1.1h-1.4c0,0-.1,0-.1-.1v-1.7c-.7,1.3-1.9,2.1-3.2,2.1-2.1,0-3.2-1.4-3.2-4Z"/>
      <path class="st0" d="M371.9,192.3v-3.9s0-2.8,0-2.8c0-1.5-.6-2.3-1.7-2.3s-1.7.8-1.8,2.3c0,0,0,.1-.1.1h-1.4c0,0-.1,0-.1-.1,0-2.3,1.3-3.5,3.4-3.5s3.3,1.2,3.3,3.5v6.7c0,0,0,.1,0,.1h-1.5c0,0-.1,0-.1-.1Z"/>
      <path class="st0" d="M375.4,189.1c0-2.8,2.2-3.4,2.2-4.9s-.3-.9-1-.9-.6,0-.9.1c0,0-.1,0-.1-.1v-.9c0,0,0,0,0-.1.4-.1.9-.2,1.4-.2,1.4,0,2.2.6,2.2,2,0,2.1-2.1,2.6-2.1,5s.7,2.3,2.1,2.3,2.2-.9,2.2-2.6v-1.2c0-1-.4-1.5-1.1-1.5h-.4c0,0-.1,0-.1,0v-.9c0,0,0-.1.1-.1h.4c1.1,0,1.5-.9,1.4-2.7,0,0,0-.1.1-.1h1.4c0,0,.1,0,.1.1,0,1.9-.5,3-1.6,3.3.9.3,1.4,1,1.4,2.1v1.2c0,2.3-1.4,3.7-3.8,3.7s-3.7-1.3-3.7-3.5Z"/>
      <path class="st0" d="M389.7,192.3v-3.9s0-2.8,0-2.8c0-1.5-.6-2.3-1.7-2.3s-1.7.8-1.8,2.3c0,0,0,.1-.1.1h-1.4c0,0-.1,0-.1-.1,0-2.3,1.3-3.5,3.4-3.5s3.3,1.2,3.3,3.5v6.7c0,0,0,.1,0,.1h-1.5c0,0-.1,0-.1-.1Z"/>
      <path class="st0" d="M393.1,187.4c0-3.4,1-5.2,2.8-5.2s1.6.5,1.9,1.4c.3-1,1-1.4,1.9-1.4,1.5,0,2.3,1.1,2.3,3.2v6.9c0,0,0,.1,0,.1h-1.4c0,0-.1,0-.1-.1v-4.2s0-2.9,0-2.9c0-1.2-.3-1.8-1-1.8s-1,.5-1.1,1.8c0,0,0,0,0,0h-.7s0,0,0,0c0,0,0,0,0-.1-.1-1.1-.5-1.7-1.1-1.7-1,0-1.5,1.4-1.5,4s.9,4,2.6,4,.7,0,1-.1c0,0,.1,0,.1,0v.9s0,0,0,0c0,0,0,0-.1,0-.5.1-.9.2-1.4.2-2.5,0-3.9-1.8-3.9-5.2Z"/>
      <path class="st0" d="M394.6,181.5v-.9c0,0,0-.1.1-.1h7.1c0,0,.1,0,.1.1v.9c0,0,0,.1-.1.1h-7.1c0,0-.1,0-.1-.1Z"/>
      <path class="st0" d="M404.2,192.3v-3.5c0-1,.5-1.7,1.3-2h-1.6c0,0-.1,0-.1-.1v-.8c0-2.4,1.5-3.8,4.3-3.8s4.2,1.3,4.2,3.7v6.5c0,0,0,.1,0,.1h-1.5c0,0-.1,0-.1-.1v-4s0-2.4,0-2.4c0-1.6-.9-2.5-2.7-2.5s-2.7.8-2.7,2.5h2.1c0,0,.1,0,.1.1v.9c0,0,0,.1-.1.1-1.2.2-1.6.7-1.6,1.9v3.5c0,0,0,.1,0,.1h-1.4c0,0-.1,0-.1-.1Z"/>
      <path class="st0" d="M414.1,189.2c0,0,0-.1.1-.1h1.4c0,0,.1,0,.1.1,0,1.5,1,2.3,2.5,2.3s2.2-.7,2.2-1.7c0-2.8-6-.8-6-4.7s1.4-2.9,3.6-2.9,3.7,1.1,3.8,3c0,0,0,.1-.1.1h-1.3c0,0-.1,0-.1-.1-.1-1.1-.9-1.8-2.2-1.8s-2,.6-2,1.6c0,2.6,6.1.6,6.1,4.7s-1.5,3.1-3.8,3.1-4-1.3-4-3.4Z"/>
      <path class="st0" d="M420.1,196.4v-2.1h-1c0,0-.1,0-.1-.1v-.9c0,0,0-.1.1-.1h2.3c0,0,.1,0,.1.1v3c0,0,0,.1-.1.1h-1.3c0,0-.1,0-.1-.1Z"/>
      <path class="st0" d="M425.5,192.3l-2.4-9.8c0,0,0-.1.1-.1h1.4c0,0,.1,0,.1,0l2.1,8.8h.4c1.8,0,2.9-1.6,2.9-4.2s-.8-3.7-2.3-3.7-.7,0-1,.1c0,0-.1,0-.1,0v-.9c0,0,0,0,0-.1.4-.1.9-.2,1.4-.2,2.4,0,3.7,1.7,3.7,4.8s-1.6,5.4-4.5,5.4h-1.7c0,0-.1,0-.1-.1Z"/>
      <path class="st0" d="M433.7,190.4v-8c0,0,0-.1,0-.1h1.5c0,0,.1,0,.1.1v4.9s0,2.9,0,2.9c0,.7.2,1.1.7,1.1s.2,0,.3,0c0,0,.1,0,.1,0v.9c0,0,0,.1-.1.1-.2,0-.5,0-.7,0-1.3,0-1.9-.7-1.9-2.1Z"/>
      <path class="st0" d="M438.2,192.3v-4.4s0-5.4,0-5.4c0,0,0-.1.1-.1h1.4c0,0,.1,0,.1.1v1.7c.7-1.3,1.9-2,3.2-2,2.1,0,3.2,1.4,3.2,4v6.2c0,0,0,.1,0,.1h-1.5c0,0-.1,0-.1-.1v-4.2s0-1.9,0-1.9c0-1.8-.7-2.8-2.1-2.8s-2.3,1.1-2.7,3.1v5.8c0,0,0,.1,0,.1h-1.4c0,0-.1,0-.1-.1Z"/>
      <path class="st0" d="M449.6,192.3l-2.1-9.7s0,0,0-.1c0,0,0,0,0,0h1.5s0,0,0,.1l1.6,8,1.8-8c0,0,0,0,.1,0h1.2c0,0,0,0,.1,0l1.9,8,1.6-7.9c0,0,0-.1.1-.1h1.5c0,0,.1,0,0,.1l-2.1,9.8c0,0,0,.1-.1.1h-1.7c0,0,0,0-.1-.1l-1.8-7.4-1.8,7.4c0,0,0,.1-.1.1h-1.7c0,0,0,0-.1-.1Z"/>
    </g>
  </g>
</svg>